<svg width="99" height="106" viewBox="0 0 99 106" fill="none" xmlns="http://www.w3.org/2000/svg">
<path d="M72.7283 14.5656C73.1016 12.656 72.8213 10.6947 71.9373 9.03076C71.0533 7.36684 69.623 6.10822 67.9008 5.4789L58.2715 1.96329C56.5491 1.33501 54.6469 1.37694 52.9035 2.08163C51.1601 2.78631 49.6886 4.10803 48.751 5.81156C46.0643 10.6859 43.1661 15.5418 43.1661 15.5418L49.3009 16.614C50.1837 14.0896 51.6287 11.3211 52.829 9.22058C53.3817 8.25417 54.2329 7.50902 55.2345 7.11478C56.2361 6.72053 57.3247 6.70214 58.3109 7.0628L64.6032 9.36007C65.5897 9.71973 66.4118 10.4357 66.9265 11.3835C67.4411 12.3314 67.6157 13.451 67.4199 14.5476C66.9923 16.9333 66.3258 19.9843 65.3847 22.4862L70.7713 25.6203C70.7713 25.6203 71.6623 20.0316 72.7283 14.5656Z" fill="#595975"/>
<path d="M53.6838 102.007L58.3287 103.703C59.7436 104.22 61.2525 104.435 62.7687 104.334C64.2849 104.234 65.7785 103.821 67.1635 103.119C68.5485 102.416 69.7977 101.439 70.8391 100.242C71.8806 99.0456 72.6938 97.6536 73.232 96.1462C78.3438 81.811 86.6835 54.9673 77.0109 31.1079C77.0109 31.1079 74.0812 23.0967 65.2728 17.4711C61.5343 15.0804 57.2688 13.6893 52.8354 13.4148C48.2874 13.1375 42.146 13.6869 37.8954 17.6651L53.6838 102.007Z" fill="#678AD0"/>
<path d="M54.9162 24.8264L57.385 22.4598C57.6587 22.1974 57.9772 21.9922 58.322 21.8562C58.6669 21.7201 59.0314 21.6557 59.3947 21.6667C59.7581 21.6777 60.1131 21.7638 60.4395 21.9202C60.7659 22.0766 61.0572 22.3002 61.2969 22.5781L66.8268 28.9913L61.1286 35.4274L54.9162 24.8264Z" fill="#E0898D"/>
<path d="M88.2114 59.3321L95.1144 57.4727C95.304 57.4216 95.5002 57.4116 95.6906 57.4433C95.8811 57.4751 96.0619 57.5478 96.2216 57.6571C96.3814 57.7663 96.5168 57.9098 96.6194 58.0785C96.722 58.2472 96.7896 58.4375 96.818 58.6376L97.8753 66.0927C97.919 66.3999 97.8503 66.7174 97.683 66.9824C97.5156 67.2473 97.2617 67.4403 96.9716 67.5231L93.6604 68.4684C93.0683 68.53 92.4867 68.6961 91.9402 68.9594L88.8406 69.8443C88.2429 69.8605 87.6525 70.029 87.1204 70.3353L83.707 71.31C83.1095 71.3286 82.5197 71.4969 81.9868 71.801L78.4695 72.8051C77.8792 72.8782 77.2994 73.0437 76.7496 73.2962L74.0919 74.0549L73.8906 69.8285L88.2114 59.3321Z" fill="white"/>
<path d="M69.6348 32.2477L66.8268 28.9913L63.4204 31.5104C62.8472 31.9335 62.1494 32.1162 61.4704 32.021C60.7914 31.9259 60.1826 31.56 59.7692 30.9987C57.6293 28.0982 55.8471 25.9281 54.9162 24.8264L51.0231 28.5588L60.4991 41.7817L69.6348 32.2477Z" fill="#B45F6D"/>
<path d="M88.2114 59.3321L63.8544 65.8926L65.5113 76.5044L74.0919 74.0549C74.3897 73.2662 74.6324 72.4577 74.8181 71.636C74.9964 70.8197 75.4353 70.0823 76.0609 69.548L88.2114 59.3321Z" fill="#CBD5EA"/>
<path d="M63.4702 36.2833L73.6661 26.6082C74.0297 26.2622 74.4545 25.9958 74.9142 25.8257C75.3738 25.6555 75.8585 25.5853 76.3378 25.6193C76.8172 25.6534 77.2811 25.791 77.7005 26.0235C78.1199 26.2561 78.4858 26.5786 78.7755 26.971C83.699 33.6923 88.2333 40.7242 92.3553 48.0307C92.7821 48.7866 92.9269 49.6896 92.7628 50.5722C92.5987 51.4547 92.1368 52.2567 91.4629 52.8293L75.3437 66.5229L63.4702 36.2833Z" fill="#FFC676"/>
<path d="M75.3437 66.5229C75.2471 56.3507 69.1066 44.7817 63.4702 36.2833L58.4594 41.0374L67.5743 73.1221L75.3437 66.5229Z" fill="#F4914E"/>
<path d="M41.4386 17.2218C41.4386 17.2218 59.4837 38.4712 71.0905 64.5618C71.0905 64.5618 72.4224 69.0544 67.698 85.3432L15.0408 48.6893C19.2119 35.4707 28.2755 13.3954 41.4386 17.2218Z" fill="#99C5F9"/>
<path d="M52.244 60.2307L22.6288 49.4183C20.2158 48.5344 17.6128 48.2839 15.0417 48.6883C13.3223 54.1379 12.4331 58.0841 12.4331 58.0841L45.3837 99.0214L53.6838 102.007C54.6647 102.36 55.7097 102.504 56.7589 102.43C57.8081 102.356 58.8408 102.066 59.798 101.577C60.7552 101.088 61.618 100.41 62.3371 99.5798C63.0562 98.7501 63.6173 97.7858 63.9884 96.7422L65.0511 93.7536C66.0961 90.6503 66.9688 87.8577 67.698 85.3432C68.1071 79.8677 66.8237 74.4659 64.0394 69.9414C61.2551 65.4169 57.1183 62.0111 52.244 60.2307Z" fill="#678AD0"/>
<path d="M41.4386 17.2218C41.4386 17.2218 44.5998 22.8837 43.12 34.6725C41.7892 45.2825 49.6826 52.1149 60.9863 56.5336C63.6366 57.5573 66.0278 59.1689 68.0013 61.2615L71.0905 64.5618C71.0905 64.5618 69.9438 55.8851 60.2956 38.8088C51.7822 23.7399 41.4386 17.2218 41.4386 17.2218Z" fill="#DCF4FF"/>
<path d="M37.7415 15.703L37.7698 15.7044C37.9557 15.7139 38.1364 15.7624 38.3014 15.8471C38.4664 15.9317 38.6124 16.0507 38.7307 16.1972C38.849 16.3436 38.9373 16.5145 38.9904 16.6998C39.0435 16.8851 39.0603 17.0811 39.0399 17.2762C38.8559 18.9869 38.3265 22.2214 36.8027 26.7076C36.7178 26.9549 36.5856 27.1829 36.4144 27.3773C36.2432 27.5717 36.0367 27.7282 35.808 27.837C35.5793 27.9459 35.3334 28.0046 35.0857 28.0095C34.838 28.0144 34.5939 27.9654 34.3689 27.8656L33.7502 27.5919C33.3517 27.4153 33.0342 27.0891 32.8578 26.6751C32.6814 26.2611 32.6583 25.7878 32.7928 25.3449C33.4157 23.2861 34.6569 19.6197 36.4225 16.4625C36.5568 16.2214 36.7517 16.0223 36.985 15.888C37.2182 15.7536 37.4804 15.6895 37.7415 15.703Z" fill="#616181"/>
<path d="M23.4591 54.2256L47.236 62.9064C52.1407 64.6971 56.0928 68.4861 58.2229 73.4399C60.353 78.3937 60.4866 84.1065 58.5943 89.3216L57.2427 93.0467C56.8091 94.2416 56.1584 95.344 55.3278 96.2909C54.4972 97.2378 53.5029 98.0107 52.4017 98.5655C51.3005 99.1203 50.114 99.4461 48.9098 99.5244C47.7057 99.6026 46.5075 99.4316 45.3837 99.0214L7.53596 85.2033C5.37305 84.4137 3.63022 82.7427 2.69087 80.5582C1.75152 78.3736 1.69259 75.8543 2.52706 73.5546L6.4269 62.8067C7.68448 59.3409 10.1854 56.4897 13.3796 54.8805C16.5737 53.2713 20.1995 53.0355 23.4591 54.2256Z" fill="#99C5F9"/>
<path d="M27.7408 54.6414L27.7145 54.6242C27.5404 54.511 27.3453 54.4363 27.1405 54.4045C26.9357 54.3727 26.7253 54.3844 26.5218 54.439C26.3183 54.4936 26.1257 54.59 25.9554 54.7224C25.7851 54.8548 25.6405 55.0207 25.5302 55.2102C24.5665 56.8742 22.9082 60.1405 21.3199 65.1878C21.2332 65.4666 21.2018 65.7592 21.228 66.0469C21.2541 66.3346 21.3371 66.6113 21.4717 66.8595C21.6064 67.1076 21.7897 67.3218 22.0101 67.4885C22.2306 67.6552 22.4833 67.7708 22.7524 67.828L23.4919 67.9864C23.9681 68.0884 24.47 68.0022 24.9026 67.7442C25.3352 67.4862 25.6686 67.0743 25.8396 66.5863C26.6374 64.32 27.9382 60.1977 28.4316 56.1916C28.4696 55.8857 28.425 55.578 28.3028 55.3038C28.1806 55.0296 27.9858 54.8 27.7408 54.6414Z" fill="#616181"/>
<path d="M77.18 53.535C76.9382 53.447 76.7406 53.2648 76.6271 53.0251C74.6341 48.8035 72.3374 44.756 69.756 40.9163C69.6007 40.6873 69.541 40.3996 69.5898 40.1164C69.6386 39.8332 69.792 39.5778 70.0163 39.4062C70.2405 39.2347 70.5173 39.1612 70.7857 39.2018C71.054 39.2424 71.292 39.3939 71.4473 39.6229C74.0871 43.549 76.436 47.6877 78.4742 52.0044C78.5652 52.1955 78.5981 52.4131 78.5686 52.6288C78.5391 52.8445 78.4485 53.0483 78.3088 53.2136C78.169 53.3789 77.9865 53.4979 77.7852 53.5553C77.5838 53.6126 77.3729 53.6055 77.18 53.535ZM81.8636 45.5365C81.6122 45.4451 81.4089 45.2523 81.2975 44.9997C80.3825 42.9587 79.2818 41.0205 78.0103 39.2112C77.8529 38.9838 77.7905 38.6968 77.8368 38.4132C77.8831 38.1296 78.0343 37.8727 78.2572 37.699C78.48 37.5254 78.7562 37.4491 79.025 37.4871C79.2939 37.5251 79.5333 37.6742 79.6906 37.9015C81.037 39.8183 82.2022 41.8715 83.1708 44.0335C83.2555 44.225 83.2829 44.4409 83.2495 44.6535C83.2161 44.8661 83.1234 45.0658 82.9832 45.2271C82.843 45.3884 82.6617 45.5041 82.4624 45.5593C82.2632 45.6145 82.0542 45.6062 81.8636 45.5365Z" fill="#F4914E"/>
<path d="M1.56769 73.204C0.638039 75.7745 0.705339 78.5888 1.75482 81.0296C2.80431 83.4704 4.75027 85.3383 7.16579 86.2235L57.9585 104.723C59.5 105.286 61.1439 105.52 62.7956 105.411C64.4474 105.301 66.0745 104.851 67.5834 104.086C69.0922 103.321 70.453 102.256 71.5875 100.952C72.722 99.6483 73.6078 98.1317 74.194 96.4895C76.3968 90.4335 78.2474 84.2551 79.7352 77.9892C79.795 77.711 79.7489 77.4233 79.6068 77.1883C79.4648 76.9534 79.2382 76.7899 78.976 76.7331C78.7138 76.6764 78.437 76.7309 78.2052 76.885C77.9735 77.0391 77.8054 77.2804 77.7372 77.5568C76.2749 83.7371 74.4493 89.83 72.271 95.8C71.3279 98.4431 69.4742 100.648 67.086 101.968C64.6979 103.288 61.9541 103.624 59.4114 102.908C59.6843 102.799 59.9541 102.678 60.2206 102.543C61.303 101.994 62.2785 101.228 63.0905 100.291C63.9026 99.3539 64.535 98.2638 64.951 97.084L66.0198 94.0775C68.6387 86.3003 70.1911 80.416 71.0955 76.0166L97.2084 68.5622C97.7477 68.4047 98.2191 68.0442 98.5308 67.5509C98.8424 67.0576 98.9719 66.467 98.8938 65.8944L97.8366 58.4391C97.7875 58.0936 97.6708 57.765 97.4937 57.4737C97.3165 57.1825 97.0828 56.9349 96.807 56.7462C96.5311 56.5576 96.2191 56.4319 95.8902 56.3771C95.5614 56.3222 95.2228 56.3394 94.8954 56.4275L86.0153 58.8195L92.0929 53.6564C92.9616 52.9147 93.5568 51.8782 93.7688 50.7383C93.9808 49.5984 93.7952 48.432 93.2463 47.4542C89.1015 40.114 84.5447 33.0484 79.5989 26.2932C79.0375 25.5295 78.2573 24.9764 77.3659 24.7101C76.4745 24.4438 75.5159 24.4774 74.6223 24.8064C73.928 23.8561 73.1858 22.9461 72.3987 22.08C72.7233 20.1895 73.207 17.4567 73.7353 14.7447C74.1631 12.5827 73.8482 10.3603 72.8468 8.47569C71.8454 6.59111 70.2231 5.16757 68.2705 4.46017L58.6412 0.944562C56.6923 0.227197 54.5374 0.271305 52.5625 1.06899C50.5877 1.86667 48.9221 3.36578 47.8642 5.29767C46.1255 8.45369 44.2853 11.6199 43.2894 13.3171C41.8392 13.7769 40.4514 14.4492 39.1677 15.3136C38.8007 15.0276 38.3586 14.8623 37.8947 14.8376L37.8663 14.8361L37.863 14.8349C37.4245 14.8144 36.9844 14.9192 36.5894 15.1381C36.1945 15.357 35.8595 15.6818 35.62 16.0781C23.0447 19.3693 15.1836 43.7438 12.3498 54.2463C9.19066 56.024 6.73576 58.9525 5.46742 62.4564L1.56769 73.204ZM95.3347 58.5176C95.3866 58.5037 95.4401 58.5009 95.4922 58.5096C95.5443 58.5183 95.5936 58.5382 95.6373 58.568C95.681 58.5978 95.718 58.637 95.7461 58.6831C95.7741 58.7292 95.7926 58.7812 95.8004 58.8359L96.8577 66.2902C96.8638 66.3316 96.8547 66.3744 96.8322 66.4102C96.8097 66.4459 96.7754 66.4719 96.7363 66.4829L93.6356 67.3681L93.4089 65.9395C93.3637 65.6599 93.214 65.4146 92.9925 65.2574C92.771 65.1003 92.4957 65.0441 92.2271 65.1011C91.9585 65.1581 91.7185 65.3238 91.5596 65.5617C91.4007 65.7997 91.336 66.0905 91.3795 66.3704L91.6284 67.9408L88.8154 68.7442L88.5773 67.2424C88.5557 67.1033 88.5079 66.9711 88.4367 66.8533C88.3655 66.7355 88.2723 66.6345 88.1624 66.556C88.0525 66.4776 87.9282 66.4232 87.7964 66.3961C87.6647 66.369 87.5281 66.3696 87.3946 66.3979C87.2611 66.4263 87.1333 66.4818 87.0185 66.5613C86.9036 66.6408 86.804 66.7427 86.7254 66.8612C86.6467 66.9797 86.5906 67.1124 86.5601 67.2518C86.5297 67.3911 86.5256 67.5344 86.548 67.6734L86.8085 69.317L83.6819 70.2095L83.1835 67.0656C83.163 66.9253 83.1159 66.7918 83.0452 66.6727C82.9743 66.5536 82.8812 66.4514 82.771 66.3719C82.6609 66.2924 82.536 66.2372 82.4035 66.2096C82.271 66.1819 82.1336 66.1824 81.9993 66.2109C81.865 66.2394 81.7365 66.2954 81.6211 66.3756C81.5057 66.4559 81.4058 66.5587 81.3272 66.6783C81.2486 66.7979 81.1928 66.9317 81.1631 67.0721C81.1334 67.2125 81.1304 67.3567 81.1542 67.4962L81.675 70.7823L78.4447 71.7047L78.2125 70.2414C78.1909 70.1023 78.1431 69.9701 78.0719 69.8523C78.0007 69.7345 77.9075 69.6335 77.7976 69.555C77.6877 69.4766 77.5634 69.4222 77.4316 69.3951C77.2999 69.368 77.1633 69.3686 77.0298 69.3969C76.8963 69.4253 76.7685 69.4808 76.6537 69.5603C76.5388 69.6398 76.4392 69.7417 76.3606 69.8602C76.2819 69.9787 76.2258 70.1114 76.1953 70.2508C76.1649 70.3901 76.1608 70.5334 76.1832 70.6724L76.4388 72.2782L71.5424 73.676C71.7145 72.6997 71.863 71.72 71.9877 70.7376L82.2138 62.0503C82.2189 62.0492 82.2235 62.0492 82.2283 62.048L95.3347 58.5176ZM74.3399 27.3969C74.5979 27.1498 74.9003 26.96 75.2276 26.8396C75.5549 26.7191 75.9001 26.6706 76.241 26.6973C76.578 26.7201 76.9041 26.8166 77.1986 26.9806C77.493 27.1445 77.7494 27.3723 77.9513 27.6495C82.8488 34.3398 87.361 41.3373 91.4651 48.6069C91.7656 49.1421 91.8672 49.7807 91.7511 50.4047C91.6351 51.0287 91.3092 51.596 90.8336 52.0021L72.2512 67.7877C72.353 65.6684 72.1745 64.635 72.1006 64.3133C71.976 63.463 70.5733 55.1213 61.7859 39.309L74.3399 27.3969ZM59.4057 39.3851C65.1856 49.6157 67.8858 56.8261 69.1113 60.8805C69.1113 60.8805 65.3486 57.0311 61.3766 55.5221C48.7818 50.7353 43.0268 43.6352 44.1393 34.7743C44.9931 27.9721 44.3433 23.1413 43.5961 20.1861C47.1889 23.1285 53.7365 29.3508 59.4057 39.3851ZM53.7603 27.3686L58.0631 23.2431C58.2352 23.078 58.4354 22.9489 58.6522 22.8632C58.869 22.7775 59.0982 22.7369 59.3267 22.7436C59.5551 22.7504 59.7784 22.8044 59.9837 22.9026C60.189 23.0009 60.3723 23.1413 60.5231 23.316L67.3215 31.2007L60.7373 37.4487C58.6767 33.8902 56.3437 30.5196 53.7603 27.3686ZM49.6368 6.32475C50.4476 4.84276 51.7248 3.69255 53.2392 3.08027C54.7537 2.46799 56.4065 2.43368 57.9014 2.98348L67.5307 6.49909C69.0282 7.04178 70.2723 8.13375 71.0402 9.57928C71.808 11.0248 72.0493 12.7294 71.7209 14.3876C71.3404 16.3502 70.9781 18.316 70.6339 20.2846C69.7278 19.4308 68.776 18.6315 67.7825 17.8902C68.0134 16.8852 68.2317 15.8191 68.4311 14.7056C68.6721 13.3593 68.4582 11.9846 67.8267 10.8208C67.1951 9.65707 66.1859 8.7779 64.9746 8.33638L58.6824 6.03911C57.4716 5.59636 56.1351 5.61911 54.9055 6.10339C53.6759 6.58767 52.6312 7.50282 51.9531 8.68953C51.2802 9.86403 50.6441 11.0604 50.0461 12.2766C48.7127 12.2972 47.3788 12.4193 46.055 12.6419C47.0656 10.9006 48.3771 8.61058 49.6368 6.32475ZM65.9672 16.6329C61.766 14.2542 57.1277 12.7852 52.3175 12.3097C52.7413 11.484 53.2044 10.6298 53.7068 9.74706C54.1337 9.0003 54.7912 8.42449 55.5651 8.11985C56.3389 7.81521 57.18 7.80103 57.9419 8.07978L64.2342 10.377C64.9964 10.6548 65.6316 11.2079 66.0292 11.9401C66.4268 12.6724 66.5616 13.5374 66.4101 14.3846C66.2711 15.1609 66.1234 15.9103 65.9672 16.6329ZM52.737 14.4913C57.0055 14.7596 61.1124 16.0991 64.7143 18.3977C67.8402 20.3885 70.5874 22.9536 72.8304 25.976L68.8745 29.728L62.0712 21.8379C61.7425 21.4568 61.343 21.1502 60.8954 20.9358C60.4478 20.7214 59.961 20.6032 59.4627 20.5882C58.9645 20.5731 58.4646 20.6614 57.9917 20.848C57.5188 21.0346 57.0822 21.3159 56.7067 21.6757L52.4214 25.7855C47.0068 19.5732 43.9288 17.5698 41.834 16.1844C44.6863 14.7764 48.2782 14.2195 52.737 14.4913ZM37.3362 17.1913C37.371 17.1277 37.4219 17.0752 37.483 17.0396C37.544 17.0041 37.6128 16.9871 37.6813 16.9905L37.7093 16.9921C37.7596 16.9947 37.8086 17.0078 37.8532 17.0307C37.8979 17.0537 37.9374 17.086 37.9694 17.1257C38.0004 17.1635 38.0235 17.2078 38.0372 17.2559C38.0509 17.3041 38.055 17.355 38.0491 17.4057C37.8869 18.9128 37.3879 22.1104 35.8654 26.5895C35.7729 26.786 35.6172 26.9436 35.4269 27.0334C35.2365 27.1233 35.0242 27.1394 34.8289 27.0789L34.2105 26.8049C34.0405 26.7292 33.9051 26.5898 33.8299 26.4129C33.7547 26.236 33.7449 26.034 33.8023 25.8449C34.3786 23.9443 35.6024 20.2917 37.3362 17.1913ZM7.38637 63.157C7.96043 61.5749 8.82195 60.1152 9.92175 58.8613C11.0216 57.6075 12.3381 56.584 13.7962 55.8494C15.2543 55.1147 16.8255 54.6833 18.4199 54.5798C20.0144 54.4762 21.6009 54.7025 23.0889 55.2458L24.0697 55.6039C22.6033 58.4647 21.3913 61.4536 20.4498 64.5314C20.3472 64.8734 20.2883 65.2267 20.2749 65.5816C20.1411 68.1867 23.3348 68.752 23.3348 68.752C24.0554 68.9053 24.8144 68.7747 25.4689 68.3846C26.1234 67.9945 26.6281 67.372 26.888 66.6344C27.6652 64.4256 29.0531 60.0683 29.5514 55.863C29.61 55.3732 29.5313 54.8816 29.3251 54.4485C29.1188 54.0154 28.794 53.6599 28.3906 53.4256L28.389 53.425L28.364 53.4082C27.9992 53.1657 27.5766 53.0297 27.1383 53.0139C26.4579 52.9907 25.7857 53.2472 25.2645 53.7288L23.8294 53.2048C20.9343 52.1449 17.7511 52.1283 14.7715 53.1575C17.272 44.3478 24.1314 23.5546 34.2331 18.8301C33.3035 20.9219 32.5057 23.0712 31.845 25.2636C31.6345 25.9604 31.6716 26.7044 31.9492 27.3554C32.2267 28.0064 32.7257 28.5195 33.352 28.7979C33.352 28.7979 35.1589 29.5711 36.2428 29.0231C36.5995 28.8479 36.9214 28.6001 37.1892 28.2946C37.457 27.9892 37.6651 27.6324 37.8011 27.2457C39.2693 22.9231 39.8477 19.723 40.0722 17.7492C40.273 17.8105 40.4662 17.8943 40.6486 17.9992C41.1568 19.08 43.3656 24.4856 42.1001 34.5718C40.8511 44.531 47.1002 52.1921 60.5957 57.5467C62.3777 58.2446 64.0644 59.1696 65.6189 60.3016C67.1831 61.4512 68.4074 63.0333 69.163 64.8817C69.9186 66.7302 70.1777 68.7767 69.9131 70.8064C69.3471 75.1436 67.8418 82.2638 64.0883 93.4107L63.0772 96.2546C62.455 98.0583 61.2119 99.5726 59.599 100.492C58.7425 100.972 57.8069 101.263 56.8516 101.348C55.8963 101.433 54.942 101.31 54.0491 100.986L51.5194 100.076C53.03 99.5599 54.4193 98.6885 55.5785 97.53C56.7378 96.3714 57.6356 94.957 58.2017 93.3975L59.5533 89.6724C61.5438 84.1867 61.4032 78.1775 59.1626 72.9667C56.922 67.7559 52.7648 63.7703 47.6056 61.8867L33.1458 56.6075C32.8954 56.5099 32.6154 56.5172 32.3625 56.6278C32.1095 56.7384 31.9025 56.944 31.7831 57.2033C31.7259 57.3392 31.6952 57.485 31.693 57.6316C31.6909 57.7782 31.7173 57.9226 31.7706 58.056C31.8239 58.1894 31.903 58.309 32.003 58.4074C32.1031 58.5059 32.222 58.5811 32.3525 58.6285L46.8669 63.9277C51.5172 65.6255 55.2643 69.2179 57.2838 73.9147C59.3034 78.6115 59.4301 84.0279 57.636 88.9724L56.2844 92.6975C55.5085 94.8356 53.9672 96.5954 51.9981 97.5914C50.029 98.5874 47.7928 98.7384 45.7794 98.0112L7.90592 84.1837C5.99748 83.487 4.45969 82.0126 3.63086 80.0851C2.80202 78.1575 2.75004 75.9346 3.48633 73.9054L7.38637 63.157ZM26.489 55.4526C26.5259 55.3888 26.5744 55.333 26.6316 55.2884C26.6888 55.2438 26.7535 55.2115 26.8219 55.1932C26.9255 55.1651 27.0336 55.1692 27.1327 55.205C27.1696 55.2184 27.2049 55.2359 27.2379 55.2573L27.263 55.2737C27.3461 55.3281 27.4119 55.4067 27.453 55.5003C27.494 55.5938 27.5085 55.6987 27.4948 55.8027C27.0095 59.7517 25.6993 63.8587 24.9595 65.9557C24.8761 66.1932 24.7139 66.3938 24.5033 66.5195C24.2927 66.6453 24.0484 66.6875 23.8165 66.6383C23.8165 66.6383 21.9495 66.5508 22.3793 65.2002C23.9864 60.1525 25.6371 56.9244 26.489 55.4526Z" fill="#3C3C4F"/>
</svg>
