<svg width="119" height="69" viewBox="0 0 119 69" fill="none" xmlns="http://www.w3.org/2000/svg">
<path d="M15.5 0C165.821 29.7467 78.1338 58.3944 15.5 69C77.9913 58.3944 128.212 23 15.5 0Z" fill="#F9FBFF"/>
<path d="M35.5 0C185.821 29.7467 98.1338 58.3944 35.5 69C97.9913 58.3944 148.212 23 35.5 0Z" fill="#F9FBFF"/>
<path d="M12.8359 30.1094C12.8672 29.8906 12.8828 29.5703 12.8828 29.1484C12.8828 28.7266 12.8008 28.3438 12.6367 28C12.4727 27.6484 12.25 27.375 11.9688 27.1797C11.4766 26.8438 10.7344 26.6758 9.74219 26.6758C8.75781 26.6758 7.88672 26.8555 7.12891 27.2148C6.37891 27.5664 5.75 28.0625 5.24219 28.7031C4.21875 29.9922 3.70703 31.7461 3.70703 33.9648C3.70703 36.0664 4.22656 37.7422 5.26562 38.9922C6.34375 40.2969 7.80078 40.9492 9.63672 40.9492C11.4414 40.9492 12.8477 40.5547 13.8555 39.7656C14.1602 39.5312 14.4375 39.2773 14.6875 39.0039C14.9219 39.0742 15.1133 39.2812 15.2617 39.625C15.3086 39.7422 15.332 39.8984 15.332 40.0938C15.332 40.2812 15.1914 40.5625 14.9102 40.9375C14.6367 41.3047 14.2344 41.6602 13.7031 42.0039C12.4375 42.832 10.9219 43.2461 9.15625 43.2461C6.625 43.2461 4.60938 42.4766 3.10938 40.9375C1.625 39.4297 0.882812 37.4102 0.882812 34.8789C0.882812 33.332 1.12891 31.9375 1.62109 30.6953C2.11328 29.4531 2.78516 28.3984 3.63672 27.5312C4.48828 26.6562 5.48047 25.9844 6.61328 25.5156C7.75391 25.0469 8.85938 24.8125 9.92969 24.8125C11.0078 24.8125 11.8711 24.9023 12.5195 25.082C13.168 25.2617 13.707 25.5078 14.1367 25.8203C14.9961 26.4609 15.4258 27.3125 15.4258 28.375C15.4258 29.1875 15.125 29.7617 14.5234 30.0977C14.3203 30.2148 14.1016 30.2734 13.8672 30.2734C13.3828 30.2734 13.0391 30.2188 12.8359 30.1094Z" fill="#F9FBFF"/>
<path d="M18.8711 43C17.8242 43 17.3008 42.7109 17.3008 42.1328C17.3008 41.875 17.3633 41.668 17.4883 41.5117C17.7148 41.5742 17.9453 41.6055 18.1797 41.6055C18.4141 41.6055 18.6133 41.5977 18.7773 41.582C18.9414 41.5664 19.0938 41.5 19.2344 41.3828C19.5234 41.1172 19.7031 40.5273 19.7734 39.6133L20.9805 27.168C20.9961 26.9727 20.9297 26.8203 20.7812 26.7109C20.6328 26.6016 20.4492 26.5234 20.2305 26.4766C20.0117 26.4297 19.8203 26.3906 19.6562 26.3594C19.5 26.3281 19.3633 26.2812 19.2461 26.2188C19.0039 26.1016 18.8828 25.9023 18.8828 25.6211C18.8828 25.332 18.9375 25.1172 19.0469 24.9766C19.1953 25.0156 19.3281 25.0352 19.4453 25.0352H22.9141C24.0781 25.0352 24.793 25.3203 25.0586 25.8906L29.418 36.1211L33.918 25.832C34.0664 25.4883 34.2891 25.2695 34.5859 25.1758C34.8828 25.082 35.2617 25.0352 35.7227 25.0352H37.9961C39.0508 25.0352 39.5781 25.3125 39.5781 25.8672C39.5781 26.1641 39.5195 26.3789 39.4023 26.5117C39.0898 26.4258 38.832 26.3828 38.6289 26.3828C38.4336 26.3828 38.2578 26.3984 38.1016 26.4297C37.9453 26.4609 37.8203 26.5195 37.7266 26.6055C37.5312 26.7695 37.457 27.0977 37.5039 27.5898L38.7695 40.4102C38.8242 40.957 39.1172 41.3008 39.6484 41.4414C39.7969 41.4805 39.9531 41.5273 40.1172 41.582L40.5742 41.7344C40.8633 41.8281 41.0391 41.9531 41.1016 42.1094C41.1641 42.2578 41.1953 42.4023 41.1953 42.543C41.1953 42.7383 41.1367 42.9102 41.0195 43.0586C40.8398 43.0195 40.6562 43 40.4688 43H35.125C34.1719 43 33.6953 42.7148 33.6953 42.1445C33.6953 42.0508 33.7227 41.9336 33.7773 41.793C33.832 41.6445 33.875 41.5508 33.9062 41.5117C34.1406 41.5742 34.3555 41.6055 34.5508 41.6055C34.7539 41.6055 34.9609 41.5898 35.1719 41.5586C35.3906 41.5273 35.5742 41.4531 35.7227 41.3359C36.043 41.0703 36.1797 40.5664 36.1328 39.8242L35.3711 29.7695L35.2656 27.8125L29.875 39.7539C29.7734 39.8164 29.6172 39.8477 29.4062 39.8477C29.1953 39.8477 28.9766 39.7734 28.75 39.625C28.5312 39.4688 28.332 39.2773 28.1523 39.0508C27.8633 38.6836 27.5859 38.2148 27.3203 37.6445L22.9609 27.4258L22.0117 40.1875C21.9805 40.6328 22.043 40.9336 22.1992 41.0898C22.3945 41.2852 22.6523 41.4258 22.9727 41.5117C23.293 41.5977 23.543 41.6641 23.7227 41.7109C23.9023 41.75 24.0586 41.8047 24.1914 41.875C24.4805 42.0156 24.625 42.25 24.625 42.5781C24.625 42.7422 24.5625 42.9023 24.4375 43.0586C24.2969 43.0195 24.1641 43 24.0391 43H18.8711Z" fill="#F9FBFF"/>
<path d="M55.7617 37.7852C55.9727 37.6055 56.1953 37.5156 56.4297 37.5156C56.7891 37.5156 56.9961 37.5664 57.0508 37.668C57.3555 38.2773 57.5078 39.2852 57.5078 40.6914C57.5078 41.668 57.3984 42.375 57.1797 42.8125C57.1094 42.9375 57.0352 43 56.957 43H44.0195C43.0898 43 42.625 42.7227 42.625 42.168C42.625 41.8711 42.6875 41.6445 42.8125 41.4883C43.0781 41.5664 43.3359 41.6055 43.5859 41.6055C43.8359 41.6055 44.0508 41.5859 44.2305 41.5469C44.4102 41.5078 44.5781 41.4258 44.7344 41.3008C45.1094 41.0117 45.2969 40.5234 45.2969 39.8359V27.9648C45.2969 27.2852 45.0234 26.8516 44.4766 26.6641C44.3203 26.6094 44.1562 26.5625 43.9844 26.5234C43.8203 26.4766 43.6602 26.4336 43.5039 26.3945C43.3555 26.3477 43.2227 26.2969 43.1055 26.2422C42.8398 26.1016 42.707 25.9102 42.707 25.668C42.707 25.3477 42.7695 25.1172 42.8945 24.9766C43.0352 25.0156 43.1758 25.0352 43.3164 25.0352H55.3047C56.0234 25.0352 56.4727 25.1016 56.6523 25.2344C56.9805 25.4688 57.1445 25.9844 57.1445 26.7812C57.1445 27.5469 57.0781 28.1719 56.9453 28.6562C56.8203 29.1406 56.7305 29.4297 56.6758 29.5234C56.5977 29.6641 56.4453 29.7344 56.2188 29.7344C55.8906 29.7344 55.6641 29.6953 55.5391 29.6172C55.4219 29.5312 55.3594 29.4688 55.3516 29.4297C55.25 28.3125 55.0742 27.6016 54.8242 27.2969C54.5742 26.9844 54.2773 26.7734 53.9336 26.6641C53.5977 26.5469 53.1562 26.4883 52.6094 26.4883H49.9961C49.168 26.4883 48.6602 26.5703 48.4727 26.7344C48.293 26.8984 48.1797 27.0898 48.1328 27.3086C48.0859 27.5195 48.0625 27.793 48.0625 28.1289V33.1211L48.7539 33.1328C50.4805 33.1328 52.082 32.9805 53.5586 32.6758C53.668 32.7305 53.7656 32.8867 53.8516 33.1445C53.9375 33.3945 53.9805 33.6445 53.9805 33.8945C53.9805 34.3164 53.9102 34.6836 53.7695 34.9961C53.2539 35.043 52.6602 35.0664 51.9883 35.0664C51.3164 35.0664 50.0078 34.957 48.0625 34.7383V40.0234C48.0625 40.6094 48.2188 41.0039 48.5312 41.207C48.7969 41.3789 49.2734 41.4648 49.9609 41.4648L51.7305 41.418C53.4414 41.3555 54.5547 41.1172 55.0703 40.7031C55.3594 40.4688 55.5508 40.1602 55.6445 39.7773C55.7383 39.3945 55.7852 39.0117 55.7852 38.6289C55.7852 38.2383 55.7773 37.957 55.7617 37.7852Z" fill="#F9FBFF"/>
<path d="M71.8516 30.1094C71.8828 29.8906 71.8984 29.5703 71.8984 29.1484C71.8984 28.7266 71.8164 28.3438 71.6523 28C71.4883 27.6484 71.2656 27.375 70.9844 27.1797C70.4922 26.8438 69.75 26.6758 68.7578 26.6758C67.7734 26.6758 66.9023 26.8555 66.1445 27.2148C65.3945 27.5664 64.7656 28.0625 64.2578 28.7031C63.2344 29.9922 62.7227 31.7461 62.7227 33.9648C62.7227 36.0664 63.2422 37.7422 64.2812 38.9922C65.3594 40.2969 66.8164 40.9492 68.6523 40.9492C70.457 40.9492 71.8633 40.5547 72.8711 39.7656C73.1758 39.5312 73.4531 39.2773 73.7031 39.0039C73.9375 39.0742 74.1289 39.2812 74.2773 39.625C74.3242 39.7422 74.3477 39.8984 74.3477 40.0938C74.3477 40.2812 74.207 40.5625 73.9258 40.9375C73.6523 41.3047 73.25 41.6602 72.7188 42.0039C71.4531 42.832 69.9375 43.2461 68.1719 43.2461C65.6406 43.2461 63.625 42.4766 62.125 40.9375C60.6406 39.4297 59.8984 37.4102 59.8984 34.8789C59.8984 33.332 60.1445 31.9375 60.6367 30.6953C61.1289 29.4531 61.8008 28.3984 62.6523 27.5312C63.5039 26.6562 64.4961 25.9844 65.6289 25.5156C66.7695 25.0469 67.875 24.8125 68.9453 24.8125C70.0234 24.8125 70.8867 24.9023 71.5352 25.082C72.1836 25.2617 72.7227 25.5078 73.1523 25.8203C74.0117 26.4609 74.4414 27.3125 74.4414 28.375C74.4414 29.1875 74.1406 29.7617 73.5391 30.0977C73.3359 30.2148 73.1172 30.2734 72.8828 30.2734C72.3984 30.2734 72.0547 30.2188 71.8516 30.1094Z" fill="#F9FBFF"/>
</svg>
