<svg width="80" height="47" viewBox="0 0 80 47" fill="none" xmlns="http://www.w3.org/2000/svg">
<path d="M10.2563 0C111.312 19.9978 52.363 39.2568 10.2563 46.3866C52.2673 39.2568 86.0292 15.4622 10.2563 0Z" fill="#000813"/>
<path d="M23.7017 0C124.758 19.9978 65.8084 39.2568 23.7017 46.3866C65.7127 39.2568 99.4745 15.4622 23.7017 0Z" fill="#000813"/>
<path d="M8.39062 21.0995C8.41146 20.9537 8.42188 20.7401 8.42188 20.4589C8.42188 20.1776 8.36719 19.9224 8.25781 19.6933C8.14844 19.4589 8 19.2766 7.8125 19.1464C7.48438 18.9224 6.98958 18.8105 6.32812 18.8105C5.67188 18.8105 5.09115 18.9302 4.58594 19.1698C4.08594 19.4042 3.66667 19.7349 3.32812 20.162C2.64583 21.0214 2.30469 22.1907 2.30469 23.6698C2.30469 25.0709 2.65104 26.1881 3.34375 27.0214C4.0625 27.8912 5.03385 28.3261 6.25781 28.3261C7.46094 28.3261 8.39844 28.0631 9.07031 27.537C9.27344 27.3808 9.45833 27.2115 9.625 27.0292C9.78125 27.0761 9.90885 27.2141 10.0078 27.4433C10.0391 27.5214 10.0547 27.6256 10.0547 27.7558C10.0547 27.8808 9.96094 28.0683 9.77344 28.3183C9.59115 28.5631 9.32292 28.8 8.96875 29.0292C8.125 29.5813 7.11458 29.8573 5.9375 29.8573C4.25 29.8573 2.90625 29.3443 1.90625 28.3183C0.916667 27.3131 0.421875 25.9667 0.421875 24.2792C0.421875 23.248 0.585938 22.3183 0.914062 21.4901C1.24219 20.662 1.6901 19.9589 2.25781 19.3808C2.82552 18.7974 3.48698 18.3495 4.24219 18.037C5.0026 17.7245 5.73958 17.5683 6.45312 17.5683C7.17188 17.5683 7.7474 17.6282 8.17969 17.748C8.61198 17.8677 8.97135 18.0318 9.25781 18.2401C9.83073 18.6672 10.1172 19.2349 10.1172 19.9433C10.1172 20.4849 9.91667 20.8677 9.51562 21.0917C9.38021 21.1698 9.23438 21.2089 9.07812 21.2089C8.75521 21.2089 8.52604 21.1724 8.39062 21.0995Z" fill="#000813"/>
<path d="M12.4141 29.6933C11.7161 29.6933 11.3672 29.5006 11.3672 29.1151C11.3672 28.9433 11.4089 28.8052 11.4922 28.7011C11.6432 28.7427 11.7969 28.7636 11.9531 28.7636C12.1094 28.7636 12.2422 28.7584 12.3516 28.748C12.4609 28.7375 12.5625 28.6933 12.6562 28.6151C12.849 28.4381 12.9688 28.0448 13.0156 27.4355L13.8203 19.1386C13.8307 19.0084 13.7865 18.9068 13.6875 18.8339C13.5885 18.761 13.4661 18.7089 13.3203 18.6776C13.1745 18.6464 13.0469 18.6204 12.9375 18.5995C12.8333 18.5787 12.7422 18.5474 12.6641 18.5058C12.5026 18.4276 12.4219 18.2948 12.4219 18.1073C12.4219 17.9146 12.4583 17.7714 12.5312 17.6776C12.6302 17.7037 12.7188 17.7167 12.7969 17.7167H15.1094C15.8854 17.7167 16.362 17.9068 16.5391 18.287L19.4453 25.1073L22.4453 18.248C22.5443 18.0188 22.6927 17.873 22.8906 17.8105C23.0885 17.748 23.3411 17.7167 23.6484 17.7167H25.1641C25.8672 17.7167 26.2188 17.9016 26.2188 18.2714C26.2188 18.4693 26.1797 18.6125 26.1016 18.7011C25.8932 18.6438 25.7214 18.6151 25.5859 18.6151C25.4557 18.6151 25.3385 18.6256 25.2344 18.6464C25.1302 18.6672 25.0469 18.7063 24.9844 18.7636C24.8542 18.873 24.8047 19.0917 24.8359 19.4198L25.6797 27.9667C25.7161 28.3313 25.9115 28.5605 26.2656 28.6542C26.3646 28.6802 26.4688 28.7115 26.5781 28.748L26.8828 28.8495C27.0755 28.912 27.1927 28.9954 27.2344 29.0995C27.276 29.1985 27.2969 29.2948 27.2969 29.3886C27.2969 29.5188 27.2578 29.6334 27.1797 29.7323C27.0599 29.7063 26.9375 29.6933 26.8125 29.6933H23.25C22.6146 29.6933 22.2969 29.5032 22.2969 29.123C22.2969 29.0605 22.3151 28.9823 22.3516 28.8886C22.388 28.7896 22.4167 28.7271 22.4375 28.7011C22.5938 28.7427 22.737 28.7636 22.8672 28.7636C23.0026 28.7636 23.1406 28.7532 23.2812 28.7323C23.4271 28.7115 23.5495 28.662 23.6484 28.5839C23.862 28.4068 23.9531 28.0709 23.9219 27.5761L23.4141 20.873L23.3438 19.5683L19.75 27.5292C19.6823 27.5709 19.5781 27.5917 19.4375 27.5917C19.2969 27.5917 19.151 27.5422 19 27.4433C18.8542 27.3391 18.7214 27.2115 18.6016 27.0605C18.4089 26.8157 18.224 26.5032 18.0469 26.123L15.1406 19.3105L14.5078 27.8183C14.487 28.1151 14.5286 28.3157 14.6328 28.4198C14.763 28.55 14.9349 28.6438 15.1484 28.7011C15.362 28.7584 15.5286 28.8026 15.6484 28.8339C15.7682 28.8599 15.8724 28.8964 15.9609 28.9433C16.1536 29.037 16.25 29.1933 16.25 29.412C16.25 29.5214 16.2083 29.6282 16.125 29.7323C16.0312 29.7063 15.9427 29.6933 15.8594 29.6933H12.4141Z" fill="#000813"/>
<path d="M37.0078 26.2167C37.1484 26.0969 37.2969 26.037 37.4531 26.037C37.6927 26.037 37.8307 26.0709 37.8672 26.1386C38.0703 26.5448 38.1719 27.2167 38.1719 28.1542C38.1719 28.8052 38.099 29.2766 37.9531 29.5683C37.9062 29.6516 37.8568 29.6933 37.8047 29.6933H29.1797C28.5599 29.6933 28.25 29.5084 28.25 29.1386C28.25 28.9407 28.2917 28.7896 28.375 28.6855C28.5521 28.7375 28.724 28.7636 28.8906 28.7636C29.0573 28.7636 29.2005 28.7506 29.3203 28.7245C29.4401 28.6985 29.5521 28.6438 29.6562 28.5605C29.9062 28.3677 30.0312 28.0422 30.0312 27.5839V19.6698C30.0312 19.2167 29.849 18.9276 29.4844 18.8026C29.3802 18.7662 29.2708 18.7349 29.1562 18.7089C29.0469 18.6776 28.9401 18.649 28.8359 18.623C28.737 18.5917 28.6484 18.5579 28.5703 18.5214C28.3932 18.4276 28.3047 18.3 28.3047 18.1386C28.3047 17.925 28.3464 17.7714 28.4297 17.6776C28.5234 17.7037 28.6172 17.7167 28.7109 17.7167H36.7031C37.1823 17.7167 37.4818 17.761 37.6016 17.8495C37.8203 18.0058 37.9297 18.3495 37.9297 18.8808C37.9297 19.3912 37.8854 19.8079 37.7969 20.1308C37.7135 20.4537 37.6536 20.6464 37.6172 20.7089C37.5651 20.8026 37.4635 20.8495 37.3125 20.8495C37.0938 20.8495 36.9427 20.8235 36.8594 20.7714C36.7812 20.7141 36.7396 20.6724 36.7344 20.6464C36.6667 19.9016 36.5495 19.4276 36.3828 19.2245C36.2161 19.0162 36.0182 18.8756 35.7891 18.8026C35.5651 18.7245 35.2708 18.6855 34.9062 18.6855H33.1641C32.612 18.6855 32.2734 18.7401 32.1484 18.8495C32.0286 18.9589 31.9531 19.0865 31.9219 19.2323C31.8906 19.373 31.875 19.5552 31.875 19.7792V23.1073L32.3359 23.1151C33.487 23.1151 34.5547 23.0136 35.5391 22.8105C35.612 22.8469 35.6771 22.9511 35.7344 23.123C35.7917 23.2896 35.8203 23.4563 35.8203 23.623C35.8203 23.9042 35.7734 24.149 35.6797 24.3573C35.3359 24.3886 34.9401 24.4042 34.4922 24.4042C34.0443 24.4042 33.1719 24.3313 31.875 24.1855V27.7089C31.875 28.0995 31.9792 28.3625 32.1875 28.498C32.3646 28.6125 32.6823 28.6698 33.1406 28.6698L34.3203 28.6386C35.4609 28.5969 36.2031 28.4381 36.5469 28.162C36.7396 28.0058 36.8672 27.8 36.9297 27.5448C36.9922 27.2896 37.0234 27.0344 37.0234 26.7792C37.0234 26.5188 37.0182 26.3313 37.0078 26.2167Z" fill="#000813"/>
<path d="M47.7344 21.0995C47.7552 20.9537 47.7656 20.7401 47.7656 20.4589C47.7656 20.1776 47.7109 19.9224 47.6016 19.6933C47.4922 19.4589 47.3438 19.2766 47.1562 19.1464C46.8281 18.9224 46.3333 18.8105 45.6719 18.8105C45.0156 18.8105 44.4349 18.9302 43.9297 19.1698C43.4297 19.4042 43.0104 19.7349 42.6719 20.162C41.9896 21.0214 41.6484 22.1907 41.6484 23.6698C41.6484 25.0709 41.9948 26.1881 42.6875 27.0214C43.4062 27.8912 44.3776 28.3261 45.6016 28.3261C46.8047 28.3261 47.7422 28.0631 48.4141 27.537C48.6172 27.3808 48.8021 27.2115 48.9688 27.0292C49.125 27.0761 49.2526 27.2141 49.3516 27.4433C49.3828 27.5214 49.3984 27.6256 49.3984 27.7558C49.3984 27.8808 49.3047 28.0683 49.1172 28.3183C48.9349 28.5631 48.6667 28.8 48.3125 29.0292C47.4688 29.5813 46.4583 29.8573 45.2812 29.8573C43.5938 29.8573 42.25 29.3443 41.25 28.3183C40.2604 27.3131 39.7656 25.9667 39.7656 24.2792C39.7656 23.248 39.9297 22.3183 40.2578 21.4901C40.5859 20.662 41.0339 19.9589 41.6016 19.3808C42.1693 18.7974 42.8307 18.3495 43.5859 18.037C44.3464 17.7245 45.0833 17.5683 45.7969 17.5683C46.5156 17.5683 47.0911 17.6282 47.5234 17.748C47.9557 17.8677 48.3151 18.0318 48.6016 18.2401C49.1745 18.6672 49.4609 19.2349 49.4609 19.9433C49.4609 20.4849 49.2604 20.8677 48.8594 21.0917C48.724 21.1698 48.5781 21.2089 48.4219 21.2089C48.099 21.2089 47.8698 21.1724 47.7344 21.0995Z" fill="#000813"/>
</svg>
