<svg width="64" height="42" viewBox="0 0 64 42" fill="none" xmlns="http://www.w3.org/2000/svg">
<path d="M2.04622 0.693268C91.7335 18.3688 39.4159 35.3914 2.04622 41.6933C39.331 35.3914 69.2946 14.3599 2.04622 0.693268Z" fill="#F9FBFF"/>
<path d="M13.979 0.693268C103.666 18.3688 51.3487 35.3914 13.979 41.6933C51.2637 35.3914 81.2274 14.3599 13.979 0.693268Z" fill="#F9FBFF"/>
<path d="M6.16797 19.248C6.18359 19.1386 6.19141 18.9784 6.19141 18.7675C6.19141 18.5565 6.15039 18.3651 6.06836 18.1933C5.98633 18.0175 5.875 17.8808 5.73438 17.7831C5.48828 17.6151 5.11719 17.5312 4.62109 17.5312C4.12891 17.5312 3.69336 17.621 3.31445 17.8007C2.93945 17.9765 2.625 18.2245 2.37109 18.5448C1.85938 19.1894 1.60352 20.0663 1.60352 21.1757C1.60352 22.2265 1.86328 23.0644 2.38281 23.6894C2.92188 24.3417 3.65039 24.6679 4.56836 24.6679C5.4707 24.6679 6.17383 24.4706 6.67773 24.0761C6.83008 23.9589 6.96875 23.8319 7.09375 23.6952C7.21094 23.7304 7.30664 23.8339 7.38086 24.0058C7.4043 24.0644 7.41602 24.1425 7.41602 24.2401C7.41602 24.3339 7.3457 24.4745 7.20508 24.662C7.06836 24.8456 6.86719 25.0233 6.60156 25.1952C5.96875 25.6093 5.21094 25.8163 4.32812 25.8163C3.0625 25.8163 2.05469 25.4315 1.30469 24.662C0.5625 23.9081 0.191406 22.8983 0.191406 21.6327C0.191406 20.8593 0.314453 20.162 0.560547 19.5409C0.806641 18.9198 1.14258 18.3925 1.56836 17.9589C1.99414 17.5214 2.49023 17.1855 3.05664 16.9511C3.62695 16.7167 4.17969 16.5995 4.71484 16.5995C5.25391 16.5995 5.68555 16.6444 6.00977 16.7343C6.33398 16.8241 6.60352 16.9472 6.81836 17.1034C7.24805 17.4237 7.46289 17.8495 7.46289 18.3808C7.46289 18.787 7.3125 19.0741 7.01172 19.2421C6.91016 19.3007 6.80078 19.33 6.68359 19.33C6.44141 19.33 6.26953 19.3026 6.16797 19.248Z" fill="#F9FBFF"/>
<path d="M9.18555 25.6933C8.66211 25.6933 8.40039 25.5487 8.40039 25.2597C8.40039 25.1308 8.43164 25.0273 8.49414 24.9491C8.60742 24.9804 8.72266 24.996 8.83984 24.996C8.95703 24.996 9.05664 24.9921 9.13867 24.9843C9.2207 24.9765 9.29688 24.9433 9.36719 24.8847C9.51172 24.7519 9.60156 24.4569 9.63672 23.9999L10.2402 17.7773C10.248 17.6796 10.2148 17.6034 10.1406 17.5487C10.0664 17.494 9.97461 17.455 9.86523 17.4315C9.75586 17.4081 9.66016 17.3886 9.57812 17.373C9.5 17.3573 9.43164 17.3339 9.37305 17.3026C9.25195 17.244 9.19141 17.1444 9.19141 17.0038C9.19141 16.8593 9.21875 16.7519 9.27344 16.6815C9.34766 16.7011 9.41406 16.7108 9.47266 16.7108H11.207C11.7891 16.7108 12.1465 16.8534 12.2793 17.1386L14.459 22.2538L16.709 17.1093C16.7832 16.9374 16.8945 16.828 17.043 16.7812C17.1914 16.7343 17.3809 16.7108 17.6113 16.7108H18.748C19.2754 16.7108 19.5391 16.8495 19.5391 17.1269C19.5391 17.2753 19.5098 17.3827 19.4512 17.4491C19.2949 17.4062 19.166 17.3847 19.0645 17.3847C18.9668 17.3847 18.8789 17.3925 18.8008 17.4081C18.7227 17.4237 18.6602 17.453 18.6133 17.496C18.5156 17.578 18.4785 17.7421 18.502 17.9882L19.1348 24.3983C19.1621 24.6718 19.3086 24.8437 19.5742 24.914C19.6484 24.9335 19.7266 24.9569 19.8086 24.9843L20.0371 25.0605C20.1816 25.1073 20.2695 25.1698 20.3008 25.248C20.332 25.3222 20.3477 25.3944 20.3477 25.4648C20.3477 25.5624 20.3184 25.6483 20.2598 25.7226C20.1699 25.703 20.0781 25.6933 19.9844 25.6933H17.3125C16.8359 25.6933 16.5977 25.5507 16.5977 25.2655C16.5977 25.2187 16.6113 25.1601 16.6387 25.0898C16.666 25.0155 16.6875 24.9687 16.7031 24.9491C16.8203 24.9804 16.9277 24.996 17.0254 24.996C17.127 24.996 17.2305 24.9882 17.3359 24.9726C17.4453 24.9569 17.5371 24.9198 17.6113 24.8612C17.7715 24.7284 17.8398 24.4765 17.8164 24.1054L17.4355 19.078L17.3828 18.0995L14.6875 24.0702C14.6367 24.1015 14.5586 24.1171 14.4531 24.1171C14.3477 24.1171 14.2383 24.08 14.125 24.0058C14.0156 23.9276 13.916 23.8319 13.8262 23.7187C13.6816 23.5351 13.543 23.3007 13.4102 23.0155L11.2305 17.9062L10.7559 24.287C10.7402 24.5097 10.7715 24.6601 10.8496 24.7382C10.9473 24.8358 11.0762 24.9062 11.2363 24.9491C11.3965 24.9921 11.5215 25.0253 11.6113 25.0487C11.7012 25.0683 11.7793 25.0956 11.8457 25.1308C11.9902 25.2011 12.0625 25.3183 12.0625 25.4823C12.0625 25.5644 12.0312 25.6444 11.9688 25.7226C11.8984 25.703 11.832 25.6933 11.7695 25.6933H9.18555Z" fill="#F9FBFF"/>
<path d="M27.6309 23.0858C27.7363 22.996 27.8477 22.9511 27.9648 22.9511C28.1445 22.9511 28.248 22.9765 28.2754 23.0273C28.4277 23.3319 28.5039 23.8358 28.5039 24.539C28.5039 25.0273 28.4492 25.3808 28.3398 25.5995C28.3047 25.662 28.2676 25.6933 28.2285 25.6933H21.7598C21.2949 25.6933 21.0625 25.5546 21.0625 25.2773C21.0625 25.1288 21.0938 25.0155 21.1562 24.9374C21.2891 24.9765 21.418 24.996 21.543 24.996C21.668 24.996 21.7754 24.9862 21.8652 24.9667C21.9551 24.9472 22.0391 24.9062 22.1172 24.8437C22.3047 24.6991 22.3984 24.455 22.3984 24.1112V18.1757C22.3984 17.8358 22.2617 17.619 21.9883 17.5253C21.9102 17.498 21.8281 17.4745 21.7422 17.455C21.6602 17.4315 21.5801 17.4101 21.502 17.3905C21.4277 17.3671 21.3613 17.3417 21.3027 17.3144C21.1699 17.244 21.1035 17.1483 21.1035 17.0273C21.1035 16.8671 21.1348 16.7519 21.1973 16.6815C21.2676 16.7011 21.3379 16.7108 21.4082 16.7108H27.4023C27.7617 16.7108 27.9863 16.744 28.0762 16.8105C28.2402 16.9276 28.3223 17.1855 28.3223 17.5839C28.3223 17.9667 28.2891 18.2792 28.2227 18.5214C28.1602 18.7636 28.1152 18.9081 28.0879 18.955C28.0488 19.0253 27.9727 19.0605 27.8594 19.0605C27.6953 19.0605 27.582 19.0409 27.5195 19.0019C27.4609 18.9589 27.4297 18.9276 27.4258 18.9081C27.375 18.3495 27.2871 17.994 27.1621 17.8417C27.0371 17.6855 26.8887 17.58 26.7168 17.5253C26.5488 17.4667 26.3281 17.4374 26.0547 17.4374H24.748C24.334 17.4374 24.0801 17.4784 23.9863 17.5605C23.8965 17.6425 23.8398 17.7382 23.8164 17.8476C23.793 17.953 23.7812 18.0898 23.7812 18.2577V20.7538L24.127 20.7597C24.9902 20.7597 25.791 20.6835 26.5293 20.5312C26.584 20.5585 26.6328 20.6366 26.6758 20.7655C26.7188 20.8905 26.7402 21.0155 26.7402 21.1405C26.7402 21.3515 26.7051 21.5351 26.6348 21.6913C26.377 21.7148 26.0801 21.7265 25.7441 21.7265C25.4082 21.7265 24.7539 21.6718 23.7812 21.5624V24.205C23.7812 24.498 23.8594 24.6952 24.0156 24.7968C24.1484 24.8827 24.3867 24.9257 24.7305 24.9257L25.6152 24.9023C26.4707 24.871 27.0273 24.7519 27.2852 24.5448C27.4297 24.4276 27.5254 24.2733 27.5723 24.0819C27.6191 23.8905 27.6426 23.6991 27.6426 23.5077C27.6426 23.3124 27.6387 23.1718 27.6309 23.0858Z" fill="#F9FBFF"/>
<path d="M35.6758 19.248C35.6914 19.1386 35.6992 18.9784 35.6992 18.7675C35.6992 18.5565 35.6582 18.3651 35.5762 18.1933C35.4941 18.0175 35.3828 17.8808 35.2422 17.7831C34.9961 17.6151 34.625 17.5312 34.1289 17.5312C33.6367 17.5312 33.2012 17.621 32.8223 17.8007C32.4473 17.9765 32.1328 18.2245 31.8789 18.5448C31.3672 19.1894 31.1113 20.0663 31.1113 21.1757C31.1113 22.2265 31.3711 23.0644 31.8906 23.6894C32.4297 24.3417 33.1582 24.6679 34.0762 24.6679C34.9785 24.6679 35.6816 24.4706 36.1855 24.0761C36.3379 23.9589 36.4766 23.8319 36.6016 23.6952C36.7188 23.7304 36.8145 23.8339 36.8887 24.0058C36.9121 24.0644 36.9238 24.1425 36.9238 24.2401C36.9238 24.3339 36.8535 24.4745 36.7129 24.662C36.5762 24.8456 36.375 25.0233 36.1094 25.1952C35.4766 25.6093 34.7188 25.8163 33.8359 25.8163C32.5703 25.8163 31.5625 25.4315 30.8125 24.662C30.0703 23.9081 29.6992 22.8983 29.6992 21.6327C29.6992 20.8593 29.8223 20.162 30.0684 19.5409C30.3145 18.9198 30.6504 18.3925 31.0762 17.9589C31.502 17.5214 31.998 17.1855 32.5645 16.9511C33.1348 16.7167 33.6875 16.5995 34.2227 16.5995C34.7617 16.5995 35.1934 16.6444 35.5176 16.7343C35.8418 16.8241 36.1113 16.9472 36.3262 17.1034C36.7559 17.4237 36.9707 17.8495 36.9707 18.3808C36.9707 18.787 36.8203 19.0741 36.5195 19.2421C36.418 19.3007 36.3086 19.33 36.1914 19.33C35.9492 19.33 35.7773 19.3026 35.6758 19.248Z" fill="#F9FBFF"/>
</svg>
