<svg width="36" height="35" viewBox="0 0 36 35" fill="none" xmlns="http://www.w3.org/2000/svg">
<g clip-path="url(#clip0_130_2641)">
<path fill-rule="evenodd" clip-rule="evenodd" d="M17.9973 0.613466C22.7712 0.613466 27.3496 2.40453 30.7252 5.59265C34.1009 8.78077 35.9973 13.1048 35.9973 17.6135C35.9973 22.1221 34.1009 26.4462 30.7252 29.6343C27.3496 32.8224 22.7712 34.6135 17.9973 34.6135C13.2234 34.6135 8.64505 32.8224 5.26939 29.6343C1.89374 26.4462 -0.00268555 22.1221 -0.00268555 17.6135C-0.00268555 13.1048 1.89374 8.78077 5.26939 5.59265C8.64505 2.40453 13.2234 0.613466 17.9973 0.613466Z" fill="#7498CF"/>
<mask id="mask0_130_2641" style="mask-type:luminance" maskUnits="userSpaceOnUse" x="-1" y="0" width="37" height="35">
<path d="M17.9973 0.613466C22.7712 0.613466 27.3496 2.40453 30.7252 5.59265C34.1009 8.78077 35.9973 13.1048 35.9973 17.6135C35.9973 22.1221 34.1009 26.4462 30.7252 29.6343C27.3496 32.8224 22.7712 34.6135 17.9973 34.6135C13.2234 34.6135 8.64505 32.8224 5.26939 29.6343C1.89374 26.4462 -0.00268555 22.1221 -0.00268555 17.6135C-0.00268555 13.1048 1.89374 8.78077 5.26939 5.59265C8.64505 2.40453 13.2234 0.613466 17.9973 0.613466Z" fill="white"/>
</mask>
<g mask="url(#mask0_130_2641)">
<path opacity="0.1" fill-rule="evenodd" clip-rule="evenodd" d="M27.6525 11.6994L47.6221 30.5546L47.6432 30.5845L47.6695 30.6143L47.6906 30.6442L47.7064 30.6791L47.7275 30.709L47.7433 30.7438L47.7592 30.7787L47.7697 30.8185L47.7803 30.8534L47.7908 30.8883L47.7961 30.9281L47.8013 30.9679L47.8066 31.0078V41.9693L47.7961 42.0091V42.0489L47.7803 42.0838L47.7697 42.1236L47.7592 42.1585L47.7433 42.1934L47.7275 42.2282L47.7064 42.2581L47.6906 42.293L47.6695 42.3229L47.6432 42.3527L47.6221 42.3826L47.5957 42.4125L47.5693 42.4374L47.5377 42.4673L47.5113 42.4872L47.4797 42.5121L47.448 42.532L47.4111 42.5519L47.3795 42.5719L47.3426 42.5918L47.3057 42.6067L47.2688 42.6217L47.2318 42.6316L47.1897 42.6416L47.1527 42.6515L47.1106 42.6565L47.0736 42.6615H47.0315L46.9893 42.6665H28.8601L28.8179 42.6565L28.7757 42.6515L28.7388 42.6416L28.6966 42.6316L28.6597 42.6217L28.6228 42.6067L28.5859 42.5918L28.549 42.5719L28.5173 42.5519L28.4857 42.532L28.4541 42.5121L28.4224 42.4872L8.45288 23.6321L8.48452 23.657L8.51616 23.6769L8.55307 23.6968L8.58471 23.7167L8.62162 23.7317L8.65853 23.7466L8.69545 23.7616L8.73236 23.7765L8.76927 23.7865L8.81146 23.7964L8.85364 23.8014L8.89055 23.8064H27.1041L27.1463 23.8014L27.1885 23.7964L27.2254 23.7865L27.2676 23.7765L27.3045 23.7616L27.3414 23.7516L27.3783 23.7317L27.41 23.7167L27.4469 23.6968L27.4785 23.6769L27.5102 23.657L27.5418 23.6321L27.5734 23.6072L27.5998 23.5823L27.6262 23.5574L27.6525 23.5275L27.6789 23.4976L27.7 23.4677L27.7211 23.4378L27.7422 23.403L27.7633 23.3731L27.7791 23.3382L27.7949 23.3034L27.8054 23.2635L27.816 23.2287L27.8265 23.1888L27.8318 23.154L27.8371 23.1141V23.0743L27.8424 23.0344V12.1178L27.8265 12.068L27.8213 12.0281L27.8107 11.9933L27.8002 11.9534L27.7896 11.9186L27.7738 11.8837L27.758 11.8489L27.7369 11.814L27.7158 11.7841L27.6947 11.7542L27.6736 11.7243L27.6525 11.6994Z" fill="#000813"/>
<path fill-rule="evenodd" clip-rule="evenodd" d="M8.97481 11.4156H27.0196C27.4731 11.4156 27.8423 11.7642 27.8423 12.1875V23.0344C27.8423 23.4627 27.4731 23.8114 27.0196 23.8114H8.97481C8.75756 23.81 8.54967 23.7276 8.39654 23.582C8.24341 23.4365 8.15747 23.2396 8.15747 23.0344V12.1875C8.15747 11.7642 8.52659 11.4156 8.97481 11.4156Z" fill="#0263C4"/>
</g>
<path d="M27.0196 11.4156H8.98009C8.52577 11.4156 8.15747 11.7634 8.15747 12.1925V23.0344C8.15747 23.4635 8.52577 23.8114 8.98009 23.8114H27.0196C27.474 23.8114 27.8423 23.4635 27.8423 23.0344V12.1925C27.8423 11.7634 27.474 11.4156 27.0196 11.4156Z" fill="#324052"/>
<path fill-rule="evenodd" clip-rule="evenodd" d="M8.97485 12.1875H27.0197V23.0344H8.97485V12.1875Z" fill="#9ED3FF"/>
<path fill-rule="evenodd" clip-rule="evenodd" d="M11.1895 13.3728C11.4329 13.3723 11.6709 13.4401 11.8735 13.5676C12.076 13.6951 12.2339 13.8765 12.3271 14.0888C12.4203 14.3011 12.4446 14.5348 12.397 14.7602C12.3494 14.9857 12.2319 15.1926 12.0596 15.3549C11.888 15.5194 11.6684 15.6319 11.4288 15.6778C11.1893 15.7238 10.9406 15.7012 10.7147 15.613C10.4888 15.5248 10.2959 15.3749 10.1606 15.1825C10.0254 14.9902 9.95402 14.7641 9.95559 14.5332C9.95559 14.3804 9.98754 14.2291 10.0496 14.088C10.1117 13.9469 10.2027 13.8187 10.3173 13.7109C10.432 13.6031 10.568 13.5177 10.7177 13.4597C10.8674 13.4017 11.0277 13.3721 11.1895 13.3728Z" fill="#FDD444"/>
<path fill-rule="evenodd" clip-rule="evenodd" d="M8.97485 19.9367H27.0197V23.0344H8.97485V19.9367Z" fill="#9FCA7B"/>
<path fill-rule="evenodd" clip-rule="evenodd" d="M26.7486 22.6691C25.6947 20.7224 23.9883 18.7708 23.5968 16.8191C22.4124 18.7708 22.0209 21.1098 20.0486 22.6691H26.7486Z" fill="#4075C5"/>
<path fill-rule="evenodd" clip-rule="evenodd" d="M24.1511 22.6858C22.8012 20.2953 20.6023 17.9048 20.0961 15.5143C18.5774 17.9048 18.0712 20.7734 15.54 22.6858H24.1511Z" fill="#E4ED80"/>
<path fill-rule="evenodd" clip-rule="evenodd" d="M20.0961 15.5093C18.5774 17.8998 19.6373 21.0971 15.54 22.6858L20.0961 15.5143V15.5093Z" fill="#BBC735"/>
<path fill-rule="evenodd" clip-rule="evenodd" d="M16.9428 13.6119C16.7866 13.6142 16.6359 13.6669 16.5157 13.7613C16.5387 13.6656 16.5385 13.5664 16.5153 13.4708C16.492 13.3752 16.4463 13.2858 16.3814 13.2093C16.3166 13.1327 16.2343 13.0709 16.1407 13.0285C16.0471 12.9862 15.9445 12.9642 15.8407 12.9644C15.748 12.9643 15.6562 12.982 15.5708 13.0164C15.4855 13.0508 15.4085 13.1012 15.3444 13.1645C15.2803 13.2278 15.2305 13.3028 15.198 13.3848C15.1655 13.4668 15.1509 13.5542 15.1552 13.6417C15.0524 13.6121 14.9437 13.6056 14.8378 13.623C14.7319 13.6403 14.6318 13.6809 14.5456 13.7415C14.4594 13.802 14.3894 13.8809 14.3414 13.9717C14.2934 14.0626 14.2687 14.1628 14.2693 14.2643C14.2693 14.7523 14.7597 14.8818 14.7597 14.9017H17.0957C17.2688 14.8744 17.4241 14.7855 17.5298 14.6532C17.6355 14.521 17.6835 14.3555 17.6639 14.1908C17.6443 14.0262 17.5586 13.8749 17.4245 13.7681C17.2903 13.6613 17.1179 13.6072 16.9428 13.6168V13.6119ZM24.4571 13.836C24.2483 13.8354 24.0455 13.9022 23.8823 14.0252C23.9112 13.8982 23.9099 13.7668 23.8784 13.6403C23.847 13.5139 23.7861 13.3956 23.7003 13.2941C23.6146 13.1926 23.506 13.1104 23.3824 13.0533C23.2588 12.9963 23.1234 12.9659 22.9859 12.9644C22.8611 12.9637 22.7374 12.9868 22.6223 13.0325C22.5073 13.0781 22.4032 13.1454 22.3165 13.2301C22.2297 13.3148 22.1621 13.4153 22.1176 13.5254C22.0731 13.6355 22.0528 13.7531 22.0578 13.8708C21.9199 13.832 21.7744 13.8242 21.6327 13.8479C21.4911 13.8717 21.3573 13.9264 21.242 14.0077C21.1267 14.089 21.0332 14.1946 20.9688 14.3161C20.9045 14.4376 20.8711 14.5716 20.8713 14.7075C20.8713 15.3599 21.5305 15.5342 21.5305 15.5591H24.6575C24.8723 15.5054 25.0596 15.3807 25.1853 15.2077C25.311 15.0346 25.3668 14.8247 25.3425 14.6161C25.3183 14.4075 25.2156 14.214 25.0531 14.0709C24.8906 13.9277 24.6791 13.8444 24.4571 13.836Z" fill="white"/>
</g>
<defs>
<clipPath id="clip0_130_2641">
<rect width="36" height="34" fill="white" transform="translate(0 0.613464)"/>
</clipPath>
</defs>
</svg>
