<svg width="64" height="42" viewBox="0 0 64 42" fill="none" xmlns="http://www.w3.org/2000/svg">
<path d="M2.04622 0.386536C91.7335 18.0621 39.4159 35.0847 2.04622 41.3865C39.331 35.0847 69.2946 14.0532 2.04622 0.386536Z" fill="#000813"/>
<path d="M13.979 0.386536C103.666 18.0621 51.3487 35.0847 13.979 41.3865C51.2637 35.0847 81.2274 14.0532 13.979 0.386536Z" fill="#000813"/>
<path d="M6.16797 18.9412C6.18359 18.8318 6.19141 18.6717 6.19141 18.4608C6.19141 18.2498 6.15039 18.0584 6.06836 17.8865C5.98633 17.7108 5.875 17.574 5.73438 17.4764C5.48828 17.3084 5.11719 17.2244 4.62109 17.2244C4.12891 17.2244 3.69336 17.3143 3.31445 17.494C2.93945 17.6697 2.625 17.9178 2.37109 18.2381C1.85938 18.8826 1.60352 19.7596 1.60352 20.869C1.60352 21.9197 1.86328 22.7576 2.38281 23.3826C2.92188 24.035 3.65039 24.3611 4.56836 24.3611C5.4707 24.3611 6.17383 24.1639 6.67773 23.7693C6.83008 23.6522 6.96875 23.5252 7.09375 23.3885C7.21094 23.4236 7.30664 23.5272 7.38086 23.699C7.4043 23.7576 7.41602 23.8358 7.41602 23.9334C7.41602 24.0272 7.3457 24.1678 7.20508 24.3553C7.06836 24.5389 6.86719 24.7166 6.60156 24.8885C5.96875 25.3026 5.21094 25.5096 4.32812 25.5096C3.0625 25.5096 2.05469 25.1248 1.30469 24.3553C0.5625 23.6014 0.191406 22.5916 0.191406 21.326C0.191406 20.5526 0.314453 19.8553 0.560547 19.2342C0.806641 18.6131 1.14258 18.0858 1.56836 17.6522C1.99414 17.2147 2.49023 16.8787 3.05664 16.6443C3.62695 16.41 4.17969 16.2928 4.71484 16.2928C5.25391 16.2928 5.68555 16.3377 6.00977 16.4276C6.33398 16.5174 6.60352 16.6404 6.81836 16.7967C7.24805 17.117 7.46289 17.5428 7.46289 18.074C7.46289 18.4803 7.3125 18.7674 7.01172 18.9354C6.91016 18.994 6.80078 19.0233 6.68359 19.0233C6.44141 19.0233 6.26953 18.9959 6.16797 18.9412Z" fill="#000813"/>
<path d="M9.18555 25.3865C8.66211 25.3865 8.40039 25.242 8.40039 24.9529C8.40039 24.824 8.43164 24.7205 8.49414 24.6424C8.60742 24.6736 8.72266 24.6893 8.83984 24.6893C8.95703 24.6893 9.05664 24.6854 9.13867 24.6776C9.2207 24.6697 9.29688 24.6365 9.36719 24.5779C9.51172 24.4451 9.60156 24.1502 9.63672 23.6932L10.2402 17.4705C10.248 17.3729 10.2148 17.2967 10.1406 17.242C10.0664 17.1873 9.97461 17.1483 9.86523 17.1248C9.75586 17.1014 9.66016 17.0818 9.57812 17.0662C9.5 17.0506 9.43164 17.0272 9.37305 16.9959C9.25195 16.9373 9.19141 16.8377 9.19141 16.6971C9.19141 16.5526 9.21875 16.4451 9.27344 16.3748C9.34766 16.3943 9.41406 16.4041 9.47266 16.4041H11.207C11.7891 16.4041 12.1465 16.5467 12.2793 16.8318L14.459 21.9471L16.709 16.8026C16.7832 16.6307 16.8945 16.5213 17.043 16.4744C17.1914 16.4276 17.3809 16.4041 17.6113 16.4041H18.748C19.2754 16.4041 19.5391 16.5428 19.5391 16.8201C19.5391 16.9686 19.5098 17.076 19.4512 17.1424C19.2949 17.0994 19.166 17.0779 19.0645 17.0779C18.9668 17.0779 18.8789 17.0858 18.8008 17.1014C18.7227 17.117 18.6602 17.1463 18.6133 17.1893C18.5156 17.2713 18.4785 17.4354 18.502 17.6815L19.1348 24.0916C19.1621 24.3651 19.3086 24.5369 19.5742 24.6072C19.6484 24.6268 19.7266 24.6502 19.8086 24.6776L20.0371 24.7537C20.1816 24.8006 20.2695 24.8631 20.3008 24.9412C20.332 25.0154 20.3477 25.0877 20.3477 25.158C20.3477 25.2557 20.3184 25.3416 20.2598 25.4158C20.1699 25.3963 20.0781 25.3865 19.9844 25.3865H17.3125C16.8359 25.3865 16.5977 25.244 16.5977 24.9588C16.5977 24.9119 16.6113 24.8533 16.6387 24.783C16.666 24.7088 16.6875 24.6619 16.7031 24.6424C16.8203 24.6736 16.9277 24.6893 17.0254 24.6893C17.127 24.6893 17.2305 24.6815 17.3359 24.6658C17.4453 24.6502 17.5371 24.6131 17.6113 24.5545C17.7715 24.4217 17.8398 24.1697 17.8164 23.7986L17.4355 18.7713L17.3828 17.7928L14.6875 23.7635C14.6367 23.7947 14.5586 23.8104 14.4531 23.8104C14.3477 23.8104 14.2383 23.7733 14.125 23.699C14.0156 23.6209 13.916 23.5252 13.8262 23.4119C13.6816 23.2283 13.543 22.994 13.4102 22.7088L11.2305 17.5994L10.7559 23.9803C10.7402 24.2029 10.7715 24.3533 10.8496 24.4315C10.9473 24.5291 11.0762 24.5994 11.2363 24.6424C11.3965 24.6854 11.5215 24.7186 11.6113 24.742C11.7012 24.7615 11.7793 24.7889 11.8457 24.824C11.9902 24.8943 12.0625 25.0115 12.0625 25.1756C12.0625 25.2576 12.0312 25.3377 11.9688 25.4158C11.8984 25.3963 11.832 25.3865 11.7695 25.3865H9.18555Z" fill="#000813"/>
<path d="M27.6309 22.7791C27.7363 22.6893 27.8477 22.6443 27.9648 22.6443C28.1445 22.6443 28.248 22.6697 28.2754 22.7205C28.4277 23.0252 28.5039 23.5291 28.5039 24.2322C28.5039 24.7205 28.4492 25.074 28.3398 25.2928C28.3047 25.3553 28.2676 25.3865 28.2285 25.3865H21.7598C21.2949 25.3865 21.0625 25.2479 21.0625 24.9705C21.0625 24.8221 21.0938 24.7088 21.1562 24.6307C21.2891 24.6697 21.418 24.6893 21.543 24.6893C21.668 24.6893 21.7754 24.6795 21.8652 24.66C21.9551 24.6404 22.0391 24.5994 22.1172 24.5369C22.3047 24.3924 22.3984 24.1483 22.3984 23.8045V17.869C22.3984 17.5291 22.2617 17.3123 21.9883 17.2186C21.9102 17.1912 21.8281 17.1678 21.7422 17.1483C21.6602 17.1248 21.5801 17.1033 21.502 17.0838C21.4277 17.0604 21.3613 17.035 21.3027 17.0076C21.1699 16.9373 21.1035 16.8416 21.1035 16.7205C21.1035 16.5604 21.1348 16.4451 21.1973 16.3748C21.2676 16.3943 21.3379 16.4041 21.4082 16.4041H27.4023C27.7617 16.4041 27.9863 16.4373 28.0762 16.5037C28.2402 16.6209 28.3223 16.8787 28.3223 17.2772C28.3223 17.66 28.2891 17.9725 28.2227 18.2147C28.1602 18.4568 28.1152 18.6014 28.0879 18.6483C28.0488 18.7186 27.9727 18.7537 27.8594 18.7537C27.6953 18.7537 27.582 18.7342 27.5195 18.6951C27.4609 18.6522 27.4297 18.6209 27.4258 18.6014C27.375 18.0428 27.2871 17.6873 27.1621 17.535C27.0371 17.3787 26.8887 17.2733 26.7168 17.2186C26.5488 17.16 26.3281 17.1307 26.0547 17.1307H24.748C24.334 17.1307 24.0801 17.1717 23.9863 17.2537C23.8965 17.3358 23.8398 17.4315 23.8164 17.5408C23.793 17.6463 23.7812 17.783 23.7812 17.951V20.4471L24.127 20.4529C24.9902 20.4529 25.791 20.3768 26.5293 20.2244C26.584 20.2518 26.6328 20.3299 26.6758 20.4588C26.7188 20.5838 26.7402 20.7088 26.7402 20.8338C26.7402 21.0447 26.7051 21.2283 26.6348 21.3846C26.377 21.408 26.0801 21.4197 25.7441 21.4197C25.4082 21.4197 24.7539 21.3651 23.7812 21.2557V23.8983C23.7812 24.1912 23.8594 24.3885 24.0156 24.4901C24.1484 24.576 24.3867 24.619 24.7305 24.619L25.6152 24.5955C26.4707 24.5643 27.0273 24.4451 27.2852 24.2381C27.4297 24.1209 27.5254 23.9666 27.5723 23.7752C27.6191 23.5838 27.6426 23.3924 27.6426 23.201C27.6426 23.0057 27.6387 22.8651 27.6309 22.7791Z" fill="#000813"/>
<path d="M35.6758 18.9412C35.6914 18.8318 35.6992 18.6717 35.6992 18.4608C35.6992 18.2498 35.6582 18.0584 35.5762 17.8865C35.4941 17.7108 35.3828 17.574 35.2422 17.4764C34.9961 17.3084 34.625 17.2244 34.1289 17.2244C33.6367 17.2244 33.2012 17.3143 32.8223 17.494C32.4473 17.6697 32.1328 17.9178 31.8789 18.2381C31.3672 18.8826 31.1113 19.7596 31.1113 20.869C31.1113 21.9197 31.3711 22.7576 31.8906 23.3826C32.4297 24.035 33.1582 24.3611 34.0762 24.3611C34.9785 24.3611 35.6816 24.1639 36.1855 23.7693C36.3379 23.6522 36.4766 23.5252 36.6016 23.3885C36.7188 23.4236 36.8145 23.5272 36.8887 23.699C36.9121 23.7576 36.9238 23.8358 36.9238 23.9334C36.9238 24.0272 36.8535 24.1678 36.7129 24.3553C36.5762 24.5389 36.375 24.7166 36.1094 24.8885C35.4766 25.3026 34.7188 25.5096 33.8359 25.5096C32.5703 25.5096 31.5625 25.1248 30.8125 24.3553C30.0703 23.6014 29.6992 22.5916 29.6992 21.326C29.6992 20.5526 29.8223 19.8553 30.0684 19.2342C30.3145 18.6131 30.6504 18.0858 31.0762 17.6522C31.502 17.2147 31.998 16.8787 32.5645 16.6443C33.1348 16.41 33.6875 16.2928 34.2227 16.2928C34.7617 16.2928 35.1934 16.3377 35.5176 16.4276C35.8418 16.5174 36.1113 16.6404 36.3262 16.7967C36.7559 17.117 36.9707 17.5428 36.9707 18.074C36.9707 18.4803 36.8203 18.7674 36.5195 18.9354C36.418 18.994 36.3086 19.0233 36.1914 19.0233C35.9492 19.0233 35.7773 18.9959 35.6758 18.9412Z" fill="#000813"/>
</svg>
