<svg width="50" height="50" viewBox="0 0 50 50" fill="none" xmlns="http://www.w3.org/2000/svg">
<path d="M25 50C38.8071 50 50 38.8071 50 25C50 11.1929 38.8071 0 25 0C11.1929 0 0 11.1929 0 25C0 38.8071 11.1929 50 25 50Z" fill="#4075C5"/>
<path d="M24.9999 46.6269C36.9441 46.6269 46.6268 36.9442 46.6268 25C46.6268 13.0558 36.9441 3.37311 24.9999 3.37311C13.0557 3.37311 3.37304 13.0558 3.37304 25C3.37304 36.9442 13.0557 46.6269 24.9999 46.6269Z" fill="#003688"/>
<path d="M38.3291 14.0955H32.7324V12.387C32.7324 11.7023 32.1733 11.1432 31.4887 11.1432C30.804 11.1432 30.245 11.7023 30.245 12.387V14.0955H19.755V12.387C19.755 11.7023 19.196 11.1432 18.5113 11.1432C17.8266 11.1432 17.2676 11.7023 17.2676 12.387V14.0955H11.6708C11.1495 14.0955 10.7286 14.5164 10.7286 15.0377V36.3254C10.7286 36.8907 11.1872 37.3555 11.7588 37.3555H38.2475C38.8128 37.3555 39.2776 36.897 39.2776 36.3254V15.0377C39.2713 14.5164 38.8505 14.0955 38.3291 14.0955Z" fill="#4075C5"/>
<path d="M38.2475 36.0929H11.7525C11.1872 36.0929 10.7224 35.6344 10.7224 35.0628V13.863C10.7224 13.2977 11.1809 12.8329 11.7525 12.8329H38.2412C38.8065 12.8329 39.2713 13.2914 39.2713 13.863V35.0628C39.2713 35.6344 38.8128 36.0929 38.2475 36.0929Z" fill="white"/>
<path d="M38.2475 35.2575H11.7525C11.1872 35.2575 10.7224 34.799 10.7224 34.2273V35.0628C10.7224 35.6281 11.1809 36.0929 11.7525 36.0929L38.2412 36.0929C38.8065 36.0929 39.2713 35.6344 39.2713 35.0628V34.2273C39.2713 34.7927 38.8128 35.2575 38.2475 35.2575Z" fill="#D1D3D4"/>
<path d="M39.2713 17.9836V13.7814C39.2713 13.26 38.8505 12.8392 38.3291 12.8392H11.6708C11.1495 12.8392 10.7286 13.26 10.7286 13.7814V17.9836H39.2713Z" fill="#7498CF"/>
<path d="M10.7286 17.4371H39.2776V18.3542H10.7286V17.4371Z" fill="#00A58C"/>
<path d="M18.5113 16.7902C19.4965 16.7902 20.2952 15.9915 20.2952 15.0062C20.2952 14.021 19.4965 13.2223 18.5113 13.2223C17.5261 13.2223 16.7274 14.021 16.7274 15.0062C16.7274 15.9915 17.5261 16.7902 18.5113 16.7902Z" fill="#00A58C"/>
<path d="M31.4887 16.7902C32.4739 16.7902 33.2726 15.9915 33.2726 15.0062C33.2726 14.021 32.4739 13.2223 31.4887 13.2223C30.5035 13.2223 29.7048 14.021 29.7048 15.0062C29.7048 15.9915 30.5035 16.7902 31.4887 16.7902Z" fill="#00A58C"/>
<path d="M18.5114 16.1997C17.8267 16.1997 17.2677 15.6407 17.2677 14.956V11.1307C17.2677 10.446 17.8267 9.88694 18.5114 9.88694C19.196 9.88694 19.7551 10.446 19.7551 11.1307V14.956C19.7551 15.6407 19.196 16.1997 18.5114 16.1997Z" fill="#FEDE3A"/>
<path d="M18.5114 14.1268C17.8267 14.1268 17.2677 13.5678 17.2677 12.8831L17.2677 14.956C17.2677 15.6407 17.8267 16.1997 18.5114 16.1997C19.196 16.1997 19.7551 15.6407 19.7551 14.956L19.7551 12.8831C19.7551 13.5678 19.1961 14.1268 18.5114 14.1268Z" fill="#E7AD27"/>
<path d="M31.4887 16.1997C30.8041 16.1997 30.245 15.6407 30.245 14.956V11.1307C30.245 10.446 30.8041 9.88694 31.4887 9.88694C32.1734 9.88694 32.7325 10.446 32.7325 11.1307V14.956C32.7325 15.6407 32.1797 16.1997 31.4887 16.1997Z" fill="#FEDE3A"/>
<path d="M31.4887 14.1268C30.804 14.1268 30.245 13.5678 30.245 12.8831L30.245 14.956C30.245 15.6407 30.8041 16.1997 31.4887 16.1997C32.1734 16.1997 32.7325 15.6407 32.7325 14.956L32.7324 12.8831C32.7324 13.5678 32.1796 14.1268 31.4887 14.1268Z" fill="#E7AD27"/>
<path d="M20.647 24.0515H18.5741C18.0528 24.0515 17.6319 23.6306 17.6319 23.1092V21.0364C17.6319 20.515 18.0528 20.0942 18.5741 20.0942H20.647C21.1684 20.0942 21.5892 20.515 21.5892 21.0364V23.1092C21.5892 23.6306 21.1621 24.0515 20.647 24.0515ZM26.0364 24.0515H23.9636C23.4422 24.0515 23.0214 23.6306 23.0214 23.1092V21.0364C23.0214 20.515 23.4422 20.0942 23.9636 20.0942H26.0364C26.5578 20.0942 26.9787 20.515 26.9787 21.0364V23.1092C26.9787 23.6306 26.5578 24.0515 26.0364 24.0515ZM31.4259 24.0515H29.353C28.8317 24.0515 28.4108 23.6306 28.4108 23.1092V21.0364C28.4108 20.515 28.8317 20.0942 29.353 20.0942H31.4259C31.9472 20.0942 32.3681 20.515 32.3681 21.0364V23.1092C32.3681 23.6306 31.9472 24.0515 31.4259 24.0515ZM36.8216 24.0515H34.7488C34.2274 24.0515 33.8065 23.6306 33.8065 23.1092V21.0364C33.8065 20.515 34.2274 20.0942 34.7488 20.0942H36.8216C37.343 20.0942 37.7638 20.515 37.7638 21.0364V23.1092C37.7638 23.6306 37.3367 24.0515 36.8216 24.0515ZM36.8216 29.0703H34.7488C34.2274 29.0703 33.8065 28.6494 33.8065 28.1281V26.0552C33.8065 25.5339 34.2274 25.113 34.7488 25.113H36.8216C37.343 25.113 37.7638 25.5339 37.7638 26.0552V28.1281C37.7638 28.6432 37.3367 29.0703 36.8216 29.0703ZM15.2513 29.0703H13.1784C12.657 29.0703 12.2362 28.6494 12.2362 28.1281V26.0552C12.2362 25.5339 12.657 25.113 13.1784 25.113H15.2513C15.7726 25.113 16.1935 25.5339 16.1935 26.0552V28.1281C16.1935 28.6432 15.7726 29.0703 15.2513 29.0703ZM20.647 29.0703H18.5741C18.0528 29.0703 17.6319 28.6494 17.6319 28.1281V26.0552C17.6319 25.5339 18.0528 25.113 18.5741 25.113H20.647C21.1684 25.113 21.5892 25.5339 21.5892 26.0552V28.1281C21.5892 28.6432 21.1621 29.0703 20.647 29.0703ZM26.0364 29.0703H23.9636C23.4422 29.0703 23.0214 28.6494 23.0214 28.1281V26.0552C23.0214 25.5339 23.4422 25.113 23.9636 25.113H26.0364C26.5578 25.113 26.9787 25.5339 26.9787 26.0552V28.1281C26.9787 28.6432 26.5578 29.0703 26.0364 29.0703ZM31.4259 29.0703H29.353C28.8317 29.0703 28.4108 28.6494 28.4108 28.1281V26.0552C28.4108 25.5339 28.8317 25.113 29.353 25.113H31.4259C31.9472 25.113 32.3681 25.5339 32.3681 26.0552V28.1281C32.3681 28.6432 31.9472 29.0703 31.4259 29.0703ZM15.2513 34.0829H13.1784C12.657 34.0829 12.2362 33.662 12.2362 33.1407V31.0678C12.2362 30.5464 12.657 30.1256 13.1784 30.1256H15.2513C15.7726 30.1256 16.1935 30.5464 16.1935 31.0678V33.1407C16.1935 33.662 15.7726 34.0829 15.2513 34.0829ZM20.647 34.0829H18.5741C18.0528 34.0829 17.6319 33.662 17.6319 33.1407V31.0678C17.6319 30.5464 18.0528 30.1256 18.5741 30.1256H20.647C21.1684 30.1256 21.5892 30.5464 21.5892 31.0678V33.1407C21.5892 33.662 21.1621 34.0829 20.647 34.0829ZM26.0364 34.0829H23.9636C23.4422 34.0829 23.0214 33.662 23.0214 33.1407V31.0678C23.0214 30.5464 23.4422 30.1256 23.9636 30.1256H26.0364C26.5578 30.1256 26.9787 30.5464 26.9787 31.0678V33.1407C26.9787 33.662 26.5578 34.0829 26.0364 34.0829ZM31.4259 34.0829H29.353C28.8317 34.0829 28.4108 33.662 28.4108 33.1407V31.0678C28.4108 30.5464 28.8317 30.1256 29.353 30.1256H31.4259C31.9472 30.1256 32.3681 30.5464 32.3681 31.0678V33.1407C32.3681 33.662 31.9472 34.0829 31.4259 34.0829Z" fill="#D1D3D4"/>
<path d="M20.6469 23.4233H18.5741C18.0527 23.4233 17.6319 23.0025 17.6319 22.4811V20.4082C17.6319 19.8869 18.0527 19.466 18.5741 19.466H20.6469C21.1683 19.466 21.5892 19.8869 21.5892 20.4082V22.4811C21.5892 23.0025 21.162 23.4233 20.6469 23.4233ZM26.0364 23.4233H23.9635C23.4422 23.4233 23.0213 23.0025 23.0213 22.4811V20.4082C23.0213 19.8869 23.4422 19.466 23.9635 19.466H26.0364C26.5577 19.466 26.9786 19.8869 26.9786 20.4082V22.4811C26.9786 23.0025 26.5577 23.4233 26.0364 23.4233ZM31.4258 23.4233H29.353C28.8316 23.4233 28.4108 23.0025 28.4108 22.4811V20.4082C28.4108 19.8869 28.8316 19.466 29.353 19.466H31.4258C31.9472 19.466 32.368 19.8869 32.368 20.4082V22.4811C32.368 23.0025 31.9472 23.4233 31.4258 23.4233ZM36.8216 23.4233H34.7487C34.2273 23.4233 33.8065 23.0025 33.8065 22.4811V20.4082C33.8065 19.8869 34.2273 19.466 34.7487 19.466H36.8216C37.3429 19.466 37.7638 19.8869 37.7638 20.4082V22.4811C37.7638 23.0025 37.3366 23.4233 36.8216 23.4233ZM36.8216 28.4422H34.7487C34.2273 28.4422 33.8065 28.0213 33.8065 27.5V25.4271C33.8065 24.9057 34.2273 24.4849 34.7487 24.4849H36.8216C37.3429 24.4849 37.7638 24.9057 37.7638 25.4271V27.5C37.7638 28.015 37.3366 28.4422 36.8216 28.4422Z" fill="#FEDE3A"/>
<path d="M15.2513 28.4422H13.1784C12.657 28.4422 12.2362 28.0213 12.2362 27.4999V25.4271C12.2362 24.9057 12.657 24.4849 13.1784 24.4849H15.2513C15.7726 24.4849 16.1935 24.9057 16.1935 25.4271V27.4999C16.1935 28.015 15.7726 28.4422 15.2513 28.4422Z" fill="#7498CF"/>
<path d="M20.6469 28.4422H18.5741C18.0527 28.4422 17.6319 28.0213 17.6319 27.4999V25.4271C17.6319 24.9057 18.0527 24.4849 18.5741 24.4849H20.6469C21.1683 24.4849 21.5892 24.9057 21.5892 25.4271V27.4999C21.5892 28.015 21.162 28.4422 20.6469 28.4422ZM26.0364 28.4422H23.9635C23.4422 28.4422 23.0213 28.0213 23.0213 27.4999V25.4271C23.0213 24.9057 23.4422 24.4849 23.9635 24.4849H26.0364C26.5577 24.4849 26.9786 24.9057 26.9786 25.4271V27.4999C26.9786 28.015 26.5577 28.4422 26.0364 28.4422ZM31.4258 28.4422H29.353C28.8316 28.4422 28.4108 28.0213 28.4108 27.4999V25.4271C28.4108 24.9057 28.8316 24.4849 29.353 24.4849H31.4258C31.9472 24.4849 32.368 24.9057 32.368 25.4271V27.4999C32.368 28.015 31.9472 28.4422 31.4258 28.4422Z" fill="#FEDE3A"/>
<path d="M15.2513 33.4547H13.1784C12.657 33.4547 12.2362 33.0339 12.2362 32.5125V30.4396C12.2362 29.9183 12.657 29.4974 13.1784 29.4974H15.2513C15.7726 29.4974 16.1935 29.9183 16.1935 30.4396V32.5125C16.1935 33.0339 15.7726 33.4547 15.2513 33.4547Z" fill="#7498CF"/>
<path d="M20.6469 33.4547H18.5741C18.0527 33.4547 17.6319 33.0339 17.6319 32.5125V30.4396C17.6319 29.9183 18.0527 29.4974 18.5741 29.4974H20.6469C21.1683 29.4974 21.5892 29.9183 21.5892 30.4396V32.5125C21.5892 33.0339 21.162 33.4547 20.6469 33.4547ZM26.0364 33.4547H23.9635C23.4422 33.4547 23.0213 33.0339 23.0213 32.5125V30.4396C23.0213 29.9183 23.4422 29.4974 23.9635 29.4974H26.0364C26.5577 29.4974 26.9786 29.9183 26.9786 30.4396V32.5125C26.9786 33.0339 26.5577 33.4547 26.0364 33.4547ZM31.4258 33.4547H29.353C28.8316 33.4547 28.4108 33.0339 28.4108 32.5125V30.4396C28.4108 29.9183 28.8316 29.4974 29.353 29.4974H31.4258C31.9472 29.4974 32.368 29.9183 32.368 30.4396V32.5125C32.368 33.0339 31.9472 33.4547 31.4258 33.4547Z" fill="#FEDE3A"/>
<path d="M20.6469 22.7638H18.5741C18.0527 22.7638 17.6319 22.3429 17.6319 21.8215L17.6319 22.4811C17.6319 23.0025 18.0527 23.4233 18.5741 23.4233H20.6469C21.1683 23.4233 21.5892 23.0025 21.5892 22.4811L21.5892 21.8215C21.5892 22.3429 21.162 22.7638 20.6469 22.7638ZM26.0364 22.7638H23.9635C23.4422 22.7638 23.0213 22.3429 23.0213 21.8215L23.0213 22.4811C23.0213 23.0025 23.4422 23.4233 23.9635 23.4233H26.0364C26.5577 23.4233 26.9786 23.0025 26.9786 22.4811L26.9786 21.8215C26.9786 22.3429 26.5577 22.7638 26.0364 22.7638ZM31.4258 22.7638H29.353C28.8316 22.7638 28.4108 22.3429 28.4108 21.8215L28.4108 22.4811C28.4108 23.0025 28.8316 23.4233 29.353 23.4233H31.4258C31.9472 23.4233 32.368 23.0025 32.368 22.4811L32.368 21.8215C32.368 22.3429 31.9472 22.7638 31.4258 22.7638ZM36.8216 22.7638H34.7487C34.2273 22.7638 33.8065 22.3429 33.8065 21.8215L33.8065 22.4811C33.8065 23.0025 34.2273 23.4233 34.7487 23.4233H36.8216C37.3429 23.4233 37.7638 23.0025 37.7638 22.4811V21.8215C37.7638 22.3429 37.3366 22.7638 36.8216 22.7638ZM36.8216 27.7826H34.7487C34.2273 27.7826 33.8065 27.3617 33.8065 26.8404L33.8065 27.5C33.8065 28.0213 34.2273 28.4422 34.7487 28.4422H36.8216C37.3429 28.4422 37.7638 28.0213 37.7638 27.5V26.8404C37.7638 27.3555 37.3366 27.7826 36.8216 27.7826ZM31.4258 27.7826H29.353C28.8316 27.7826 28.4108 27.3617 28.4108 26.8404V27.4999C28.4108 28.0213 28.8316 28.4422 29.353 28.4422H31.4258C31.9472 28.4422 32.368 28.0213 32.368 27.4999V26.8404C32.368 27.3555 31.9472 27.7826 31.4258 27.7826ZM31.4258 32.7952H29.353C28.8316 32.7952 28.4108 32.3743 28.4108 31.853V32.5125C28.4108 33.0339 28.8316 33.4547 29.353 33.4547H31.4258C31.9472 33.4547 32.368 33.0339 32.368 32.5125V31.853C32.368 32.3743 31.9472 32.7952 31.4258 32.7952ZM26.0364 32.7952H23.9635C23.4422 32.7952 23.0213 32.3743 23.0213 31.853V32.5125C23.0213 33.0339 23.4422 33.4547 23.9635 33.4547H26.0364C26.5577 33.4547 26.9786 33.0339 26.9786 32.5125V31.853C26.9786 32.3743 26.5577 32.7952 26.0364 32.7952ZM20.6469 32.7952H18.5741C18.0527 32.7952 17.6319 32.3743 17.6319 31.853V32.5125C17.6319 33.0339 18.0527 33.4547 18.5741 33.4547H20.6469C21.1683 33.4547 21.5892 33.0339 21.5892 32.5125V31.853C21.5892 32.3743 21.162 32.7952 20.6469 32.7952Z" fill="#E7AD27"/>
<path d="M15.2513 32.7952H13.1784C12.657 32.7952 12.2362 32.3743 12.2362 31.853V32.5125C12.2362 33.0339 12.657 33.4547 13.1784 33.4547H15.2513C15.7726 33.4547 16.1935 33.0339 16.1935 32.5125V31.853C16.1935 32.3743 15.7726 32.7952 15.2513 32.7952Z" fill="#4075C5"/>
<path d="M26.0364 27.7826H23.9635C23.4422 27.7826 23.0213 27.3618 23.0213 26.8404V27.4999C23.0213 28.0213 23.4422 28.4422 23.9635 28.4422H26.0364C26.5577 28.4422 26.9786 28.0213 26.9786 27.4999V26.8404C26.9786 27.3555 26.5577 27.7826 26.0364 27.7826ZM20.6469 27.7826H18.5741C18.0527 27.7826 17.6319 27.3618 17.6319 26.8404V27.4999C17.6319 28.0213 18.0527 28.4422 18.5741 28.4422H20.6469C21.1683 28.4422 21.5892 28.0213 21.5892 27.4999L21.5892 26.8404C21.5892 27.3555 21.162 27.7826 20.6469 27.7826Z" fill="#E7AD27"/>
<path d="M15.2513 27.7826H13.1784C12.657 27.7826 12.2362 27.3618 12.2362 26.8404V27.4999C12.2362 28.0213 12.657 28.4422 13.1784 28.4422H15.2513C15.7726 28.4422 16.1935 28.0213 16.1935 27.4999V26.8404C16.1935 27.3555 15.7726 27.7826 15.2513 27.7826Z" fill="#4075C5"/>
</svg>
