<svg width="36" height="35" viewBox="0 0 36 35" fill="none" xmlns="http://www.w3.org/2000/svg">
<g clip-path="url(#clip0_130_2851)">
<path fill-rule="evenodd" clip-rule="evenodd" d="M17.9973 0.613476C22.7712 0.613476 27.3496 2.40454 30.7252 5.59266C34.1009 8.78078 35.9973 13.1048 35.9973 17.6135C35.9973 22.1222 34.1009 26.4462 30.7252 29.6343C27.3496 32.8224 22.7712 34.6135 17.9973 34.6135C13.2234 34.6135 8.64505 32.8224 5.26939 29.6343C1.89374 26.4462 -0.00268555 22.1222 -0.00268555 17.6135C-0.00268555 13.1048 1.89374 8.78078 5.26939 5.59266C8.64505 2.40454 13.2234 0.613476 17.9973 0.613476Z" fill="#7498CF"/>
<mask id="mask0_130_2851" style="mask-type:luminance" maskUnits="userSpaceOnUse" x="-1" y="0" width="37" height="35">
<path d="M17.9973 0.613476C22.7712 0.613476 27.3496 2.40454 30.7252 5.59266C34.1009 8.78078 35.9973 13.1048 35.9973 17.6135C35.9973 22.1222 34.1009 26.4462 30.7252 29.6343C27.3496 32.8224 22.7712 34.6135 17.9973 34.6135C13.2234 34.6135 8.64505 32.8224 5.26939 29.6343C1.89374 26.4462 -0.00268555 22.1222 -0.00268555 17.6135C-0.00268555 13.1048 1.89374 8.78078 5.26939 5.59266C8.64505 2.40454 13.2234 0.613476 17.9973 0.613476Z" fill="white"/>
</mask>
<g mask="url(#mask0_130_2851)">
<g opacity="0.1">
<path fill-rule="evenodd" clip-rule="evenodd" d="M21.8413 8.33282L41.8161 27.178V27.8254L21.8413 8.98024V8.33282Z" fill="#000813"/>
<path fill-rule="evenodd" clip-rule="evenodd" d="M21.3931 15.5143L41.3573 34.3694V34.4491L21.3931 15.589V15.5143Z" fill="#000813"/>
<path fill-rule="evenodd" clip-rule="evenodd" d="M21.3931 13.7463L41.3573 32.6015L41.3784 32.6264L41.3995 32.6562L41.4153 32.6811L41.4311 32.711L41.447 32.7359L41.4575 32.7658L41.4733 32.7957L41.4839 32.8256L41.4944 32.8554L41.505 32.8803L41.5102 32.9102L41.5155 32.9401L41.5208 32.97L41.5261 32.9999L41.5313 33.0298V33.2041L41.5261 33.2339L41.5208 33.2638L41.5155 33.2887L41.505 33.3186L41.4997 33.3435L41.4892 33.3734L41.4786 33.3983L41.4681 33.4232L41.4575 33.4531L41.447 33.478L41.4311 33.5029L21.4669 14.6428L21.4774 14.6179L21.4933 14.593L21.5038 14.5681L21.5143 14.5432L21.5249 14.5133L21.5354 14.4884L21.5407 14.4585L21.5513 14.4336V14.4037L21.5618 14.3788V14.319L21.5671 14.2892V14.1447L21.5565 14.1149V14.085L21.546 14.0551L21.5354 14.0252L21.5302 13.9953L21.5196 13.9655L21.5091 13.9405L21.4933 13.9107L21.4827 13.8808L21.4669 13.8559L21.4511 13.826L21.43 13.7961L21.4142 13.7712L21.3931 13.7463Z" fill="#000813"/>
<path fill-rule="evenodd" clip-rule="evenodd" d="M21.3931 8.97526L41.3573 27.8304V32.6015L21.3931 13.7463V8.97526Z" fill="#000813"/>
<path fill-rule="evenodd" clip-rule="evenodd" d="M21.8413 8.97526L41.8161 27.8304H41.3626L21.3931 8.98024L21.8413 8.97526Z" fill="#000813"/>
<path fill-rule="evenodd" clip-rule="evenodd" d="M27.8423 12.1975L47.8065 31.0526L47.7116 31.1124L47.6167 31.1771L47.5218 31.2419L47.4321 31.3066L47.3478 31.3763L47.2581 31.446L47.179 31.5207L47.0946 31.5905L47.0156 31.6652L46.9365 31.7449L46.8574 31.8196L46.7835 31.8943L46.7097 31.9739L46.6359 32.0486L46.5673 32.1283L46.4988 32.208L46.425 32.2827L46.3617 32.3624L46.2931 32.4371L46.2246 32.5168L46.1613 32.5915L46.098 32.6662L46.0347 32.7359L45.9662 32.8106L45.9029 32.8803L45.8449 32.9501L45.7816 33.0148L45.7183 33.0796L45.6551 33.1393L45.5918 33.1991L45.5285 33.2588L45.4652 33.3086L25.501 14.4585L25.5643 14.4037L25.6275 14.3439L25.6908 14.2842L25.7541 14.2244L25.8121 14.1597L25.8754 14.09L25.9387 14.0252L26.0019 13.9505L26.0652 13.8808L26.1285 13.8061L26.197 13.7314L26.2603 13.6567L26.3289 13.582L26.3921 13.5073L26.4607 13.4276L26.5292 13.3529L26.6031 13.2732L26.6716 13.1935L26.7454 13.1188L26.8193 13.0391L26.8931 12.9644L26.9722 12.8847L27.0513 12.81L27.1304 12.7353L27.2095 12.6606L27.2939 12.5909L27.3782 12.5212L27.4679 12.4515L27.5575 12.3817L27.6524 12.317L27.7474 12.2572L27.8423 12.1975Z" fill="#000813"/>
<path fill-rule="evenodd" clip-rule="evenodd" d="M9.25437 8.97526L29.2239 27.8304H28.7704L8.80615 8.98024L9.25437 8.97526Z" fill="#000813"/>
<path fill-rule="evenodd" clip-rule="evenodd" d="M26.5293 26.421L46.4936 45.2761V45.3309L46.4883 45.3409V45.3459L26.5188 26.4907V26.4808L26.5241 26.4758V26.4359L26.5293 26.431V26.421Z" fill="#000813"/>
<path fill-rule="evenodd" clip-rule="evenodd" d="M21.4617 14.6428L41.4312 33.5029L41.447 33.5178L41.4628 33.5377L41.4787 33.5527L41.4945 33.5726L41.5156 33.5875L41.5314 33.6075L41.5472 33.6224L41.563 33.6423L41.5789 33.6622L41.5947 33.6772L41.6105 33.6971L41.6263 33.712L41.6421 33.732L41.6579 33.7469L41.6738 33.7668L41.6949 33.7818L21.7253 14.9266L21.7095 14.9067L21.6937 14.8918L21.6779 14.8718L21.662 14.8569L21.6462 14.837L21.6304 14.822L21.6146 14.8021L21.5988 14.7872L21.5777 14.7673L21.5619 14.7523L21.546 14.7324L21.5302 14.7175L21.5144 14.6975L21.4986 14.6826L21.4828 14.6627L21.4617 14.6428Z" fill="#000813"/>
<path fill-rule="evenodd" clip-rule="evenodd" d="M22.163 14.7473L42.1272 33.6025L42.1008 33.6274L42.0797 33.6573L42.0587 33.6822L42.0323 33.7071L42.0112 33.732L41.9901 33.7618L41.9637 33.7867L41.9426 33.8116L41.9163 33.8365L41.8952 33.8664L41.8741 33.8913L41.8477 33.9162L41.8266 33.9411L41.8003 33.971L41.7792 33.9959L41.7528 34.0208L41.7317 34.0507L41.7054 34.0756L41.6843 34.1005L41.6579 34.1304L41.6368 34.1553L41.6104 34.1802L41.5841 34.2051L41.563 34.235L41.5366 34.2599L41.5102 34.2848L41.4892 34.3147L41.4628 34.3396L41.4364 34.3645L41.4101 34.3943L41.3837 34.4192L41.3626 34.4441L21.3931 15.589L21.4194 15.5641L21.4458 15.5342L21.4722 15.5093L21.4985 15.4844L21.5196 15.4545L21.546 15.4296L21.5724 15.4047L21.5934 15.3749L21.6198 15.35L21.6462 15.3251L21.6673 15.3001L21.6936 15.2703L21.7147 15.2454L21.7411 15.2205L21.7622 15.1906L21.7886 15.1657L21.8096 15.1408L21.836 15.1159L21.8571 15.086L21.8835 15.0611L21.9046 15.0362L21.9309 15.0063L21.952 14.9814L21.9784 14.9565L21.9995 14.9316L22.0206 14.9017L22.0469 14.8768L22.068 14.8519L22.0891 14.827L22.1155 14.7971L22.1366 14.7722L22.163 14.7473Z" fill="#000813"/>
<path fill-rule="evenodd" clip-rule="evenodd" d="M25.5009 14.4585L45.4651 33.3136L45.3228 33.4282L45.1804 33.5377L45.0433 33.6373L44.9062 33.727L44.7691 33.8116L44.6372 33.8864L44.5054 33.9511L44.3789 34.0109L44.2523 34.0607L44.1257 34.1055L44.0045 34.1403L43.8832 34.1702L43.7672 34.1951L43.6512 34.2101L43.5457 34.22H43.3295L43.224 34.215L43.1186 34.2001L43.0236 34.1802L42.934 34.1553L42.8391 34.1254L42.7547 34.0955L42.6703 34.0557L42.5912 34.0109L42.5121 33.9611L42.4383 33.9113L42.3698 33.8615L42.3012 33.8017L42.2379 33.7369L22.2737 14.8818L22.337 14.9416L22.4055 15.0013L22.4741 15.0561L22.5479 15.1059L22.6217 15.1557L22.7061 15.2005L22.7905 15.2354L22.8748 15.2703L22.9645 15.3001L23.0594 15.3251L23.1596 15.345L23.2598 15.3549L23.3652 15.3649H23.5762L23.6869 15.3549L23.8029 15.335L23.9189 15.3151L24.0402 15.2852L24.1615 15.2503L24.2828 15.2005L24.4093 15.1507L24.5411 15.096L24.673 15.0262L24.8048 14.9565L24.9419 14.8719L25.079 14.7822L25.2161 14.6826L25.3585 14.573L25.5009 14.4585Z" fill="#000813"/>
<path fill-rule="evenodd" clip-rule="evenodd" d="M27.4521 15.589L47.4164 34.4491V35.0965L27.4521 16.2315V15.589Z" fill="#000813"/>
<path fill-rule="evenodd" clip-rule="evenodd" d="M27.4521 16.2364L47.4164 35.0916H46.4936L26.5293 16.2364H27.4521Z" fill="#000813"/>
<path fill-rule="evenodd" clip-rule="evenodd" d="M26.5293 16.2364L46.4936 35.0916V45.2761L26.5293 26.421V16.2364Z" fill="#000813"/>
<path fill-rule="evenodd" clip-rule="evenodd" d="M27.5627 26.4907L47.527 45.3458V45.7542L27.5627 26.8941V26.4907Z" fill="#000813"/>
<path fill-rule="evenodd" clip-rule="evenodd" d="M27.5628 26.8941L47.527 45.7542H28.1217L8.15747 26.8941H27.5628Z" fill="#000813"/>
<path fill-rule="evenodd" clip-rule="evenodd" d="M22.047 14.578C21.2613 13.1985 22.5427 10.6337 27.8423 12.1975C26.7929 12.83 26.1707 13.8907 25.501 14.4585C23.9717 15.7534 22.722 15.4944 22.163 14.7473C21.9152 15.0213 21.6674 15.3101 21.3932 15.589H27.452V16.2364H26.5292V26.421C26.5292 26.4459 26.5292 26.4708 26.5187 26.4907H27.5628V26.8941H8.15747V26.4957H9.26484C9.2581 26.4662 9.25457 26.4362 9.25429 26.4061V8.97526H8.80607V8.32784H21.8414V8.97526H21.3932V13.7463C21.4928 13.8744 21.5525 14.0262 21.5655 14.1846C21.5786 14.343 21.5444 14.5017 21.467 14.6428C21.5513 14.7424 21.641 14.832 21.7306 14.9266L22.047 14.578Z" fill="#000813"/>
</g>
</g>
<path d="M20.4705 26.4907C20.4643 26.4679 20.4607 26.4445 20.46 26.421L20.9293 26.0475V16.336C20.6656 16.336 20.46 16.1717 20.46 15.9625C20.46 15.7583 20.6709 15.589 20.9293 15.589H26.0601C26.3237 15.589 26.5294 15.7583 26.5294 15.9625V26.421C26.5294 26.4459 26.5294 26.4708 26.5188 26.4907H20.4705Z" fill="#003688"/>
<path fill-rule="evenodd" clip-rule="evenodd" d="M12.0545 22.8751H11.1265V25.0813H12.0598L12.0545 22.8751ZM19.5266 22.8751H18.5933V25.0813H19.5266V22.8751ZM18.5406 21.7246C18.5979 21.8277 18.6096 21.948 18.573 22.0591C18.5548 22.1142 18.5254 22.1653 18.4864 22.2096C18.4474 22.2539 18.3995 22.2905 18.3454 22.3173C18.2364 22.3714 18.109 22.3825 17.9913 22.3479C17.8736 22.3133 17.7753 22.236 17.7179 22.133C17.5147 21.8119 17.2079 21.5606 16.8426 21.4159C16.3655 21.2128 15.8472 21.1108 15.3239 21.1171C14.8103 21.1116 14.3015 21.2101 13.8316 21.4059C13.4692 21.5474 13.1617 21.7908 12.951 22.1031C12.9209 22.1532 12.8806 22.1971 12.8325 22.2324C12.7844 22.2678 12.7294 22.2938 12.6706 22.3091C12.6119 22.3243 12.5505 22.3285 12.49 22.3214C12.4296 22.3142 12.3712 22.2959 12.3182 22.2675C12.2652 22.239 12.2187 22.201 12.1813 22.1556C12.1439 22.1101 12.1163 22.0582 12.1001 22.0027C12.084 21.9472 12.0796 21.8893 12.0871 21.8321C12.0947 21.775 12.1141 21.7199 12.1442 21.6699C12.4498 21.1978 12.903 20.8272 13.4414 20.6091C14.0334 20.3589 14.6753 20.2315 15.3239 20.2356C16.0252 20.2356 16.6897 20.375 17.2434 20.624C17.8234 20.883 18.2822 21.2665 18.5406 21.7246Z" fill="#627389"/>
<path fill-rule="evenodd" clip-rule="evenodd" d="M20.9292 8.33281H9.72371C9.60015 8.33281 9.48157 8.37882 9.3937 8.46087C9.30584 8.54292 9.25578 8.65439 9.25439 8.77108V26.4061C9.25439 26.4359 9.25439 26.4658 9.26494 26.4907H14.0372V22.4368H16.6158V26.4907H21.3827C21.3891 26.4629 21.3926 26.4345 21.3933 26.4061V8.77108C21.3933 8.65438 21.3445 8.54239 21.2577 8.4594C21.1708 8.37642 21.0528 8.33413 20.9292 8.33281Z" fill="#4075C5"/>
<path fill-rule="evenodd" clip-rule="evenodd" d="M15.7932 10.1058H14.8599V11.067H15.7932V10.1058Z" fill="#4FC3F7"/>
<path d="M15.7931 10.0659H14.8597C14.8538 10.0652 14.8477 10.0657 14.8419 10.0674C14.8362 10.0691 14.8309 10.0719 14.8264 10.0757C14.8219 10.0795 14.8183 10.0841 14.8159 10.0893C14.8134 10.0945 14.8122 10.1001 14.8123 10.1058V11.067C14.8123 11.0919 14.8334 11.1118 14.8597 11.1118H15.7931C15.7991 11.1118 15.805 11.1107 15.8105 11.1083C15.816 11.106 15.8209 11.1027 15.8249 11.0984C15.8289 11.0942 15.8319 11.0892 15.8337 11.0837C15.8355 11.0783 15.836 11.0726 15.8353 11.067V10.1058C15.8353 10.0952 15.8308 10.0851 15.8229 10.0776C15.815 10.0701 15.8043 10.0659 15.7931 10.0659ZM14.9019 10.1456H15.7456V11.0271H14.9019V10.1456Z" fill="#47241A"/>
<path fill-rule="evenodd" clip-rule="evenodd" d="M13.9212 10.1058H12.9932V11.067H13.9265L13.9212 10.1058Z" fill="#4FC3F7"/>
<path d="M13.9211 10.0659H12.993C12.9871 10.0652 12.981 10.0657 12.9752 10.0674C12.9695 10.0691 12.9642 10.0719 12.9597 10.0757C12.9552 10.0795 12.9516 10.0841 12.9492 10.0893C12.9467 10.0945 12.9455 10.1001 12.9456 10.1058V11.067C12.9456 11.0919 12.9667 11.1118 12.993 11.1118H13.9264C13.9324 11.1118 13.9383 11.1107 13.9438 11.1083C13.9493 11.106 13.9542 11.1027 13.9582 11.0984C13.9622 11.0942 13.9652 11.0892 13.967 11.0837C13.9688 11.0783 13.9693 11.0726 13.9686 11.067V10.1058C13.9686 10.0952 13.9641 10.0851 13.9562 10.0776C13.9483 10.0701 13.9323 10.0659 13.9211 10.0659ZM13.0352 10.1456H13.8789V11.0271H13.0352V10.1456Z" fill="#47241A"/>
<path fill-rule="evenodd" clip-rule="evenodd" d="M12.0545 10.1058H11.1265V11.067H12.0598L12.0545 10.1058Z" fill="#4FC3F7"/>
<path d="M12.0545 10.0659H11.1264C11.1152 10.0659 11.1045 10.0701 11.0966 10.0776C11.0887 10.0851 11.0842 10.0952 11.0842 10.1058V11.067C11.0842 11.0919 11.1053 11.1118 11.1264 11.1118H12.0598C12.0662 11.1126 12.0728 11.112 12.0789 11.11C12.0851 11.1081 12.0907 11.1048 12.0953 11.1005C12.0998 11.0961 12.1033 11.0909 12.1054 11.085C12.1075 11.0792 12.1081 11.073 12.1072 11.067V10.1058C12.1073 10.1001 12.106 10.0945 12.1036 10.0893C12.1012 10.0841 12.0976 10.0795 12.0931 10.0757C12.0886 10.0719 12.0833 10.0691 12.0775 10.0674C12.0718 10.0657 12.0605 10.0652 12.0545 10.0659ZM11.1686 10.1456H12.0123V11.0271H11.1686V10.1456Z" fill="#47241A"/>
<path fill-rule="evenodd" clip-rule="evenodd" d="M15.7932 12.0331H14.8599V12.9943H15.7932V12.0331Z" fill="#4FC3F7"/>
<path d="M15.7932 11.9883H14.8599L14.8407 11.99L14.8244 11.9996L14.8142 12.015L14.8124 12.0331V12.9943C14.8124 13.0192 14.8335 13.0341 14.8599 13.0341H15.7932L15.8093 13.0311L15.823 13.0225L15.8322 13.0095L15.8354 12.9943V12.0331L15.8338 12.0163L15.8251 12.0017L15.8107 11.9917L15.7932 11.9883ZM14.902 12.073H15.7457V12.9545H14.902V12.068V12.073Z" fill="#47241A"/>
<path fill-rule="evenodd" clip-rule="evenodd" d="M15.7932 13.9605H14.8599V14.9217H15.7932V13.9605Z" fill="#4FC3F7"/>
<path d="M15.7931 13.9156H14.8597C14.8538 13.9149 14.8477 13.9154 14.8419 13.9171C14.8362 13.9188 14.8309 13.9216 14.8264 13.9254C14.8219 13.9292 14.8183 13.9338 14.8159 13.939C14.8134 13.9442 14.8122 13.9498 14.8123 13.9555V14.9217C14.8123 14.9416 14.8334 14.9615 14.8597 14.9615H15.7931C15.8043 14.9615 15.815 14.9573 15.8229 14.9498C15.8308 14.9424 15.8353 14.9322 15.8353 14.9217V13.9555C15.8353 13.9449 15.8308 13.9348 15.8229 13.9273C15.815 13.9198 15.8043 13.9156 15.7931 13.9156ZM14.9019 14.0003H15.7456V14.8818H14.9019V14.0003Z" fill="#47241A"/>
<path fill-rule="evenodd" clip-rule="evenodd" d="M15.7932 15.8828H14.8599V16.849H15.7932V15.8828Z" fill="#4FC3F7"/>
<path d="M15.7931 15.843H14.8597C14.8538 15.8423 14.8477 15.8428 14.8419 15.8445C14.8362 15.8461 14.8309 15.849 14.8264 15.8527C14.8219 15.8565 14.8183 15.8612 14.8159 15.8663C14.8134 15.8715 14.8122 15.8772 14.8123 15.8828V16.849C14.8123 16.8689 14.8334 16.8888 14.8597 16.8888H15.7931C15.8043 16.8888 15.815 16.8846 15.8229 16.8772C15.8308 16.8697 15.8353 16.8596 15.8353 16.849V15.8828C15.8353 15.8723 15.8308 15.8621 15.8229 15.8547C15.815 15.8472 15.8043 15.843 15.7931 15.843ZM14.9019 15.9277H15.7456V16.8042H14.9019V15.9277Z" fill="#47241A"/>
<path fill-rule="evenodd" clip-rule="evenodd" d="M15.7932 17.8102H14.8599V18.7714H15.7932V17.8102Z" fill="#4FC3F7"/>
<path d="M15.7931 17.7703H14.8597C14.8538 17.7696 14.8477 17.7701 14.8419 17.7718C14.8362 17.7735 14.8309 17.7763 14.8264 17.7801C14.8219 17.7839 14.8183 17.7885 14.8159 17.7937C14.8134 17.7989 14.8122 17.8045 14.8123 17.8102V18.7714C14.8123 18.7963 14.8334 18.8162 14.8597 18.8162H15.7931C15.7991 18.8162 15.805 18.8151 15.8105 18.8128C15.816 18.8105 15.8209 18.8071 15.8249 18.8028C15.8289 18.7986 15.8319 18.7936 15.8337 18.7881C15.8355 18.7827 15.836 18.777 15.8353 18.7714V17.8102C15.8353 17.7996 15.8308 17.7895 15.8229 17.782C15.815 17.7745 15.8043 17.7703 15.7931 17.7703ZM14.9019 17.85H15.7456V18.7315H14.9019V17.85Z" fill="#47241A"/>
<path fill-rule="evenodd" clip-rule="evenodd" d="M15.7932 19.7375H14.8599V20.6987H15.7932V19.7375Z" fill="#4FC3F7"/>
<path d="M15.7932 19.6927H14.8599C14.8534 19.6919 14.8469 19.6925 14.8407 19.6944C14.8346 19.6964 14.829 19.6997 14.8244 19.704C14.8198 19.7084 14.8163 19.7136 14.8142 19.7195C14.8121 19.7253 14.8115 19.7314 14.8124 19.7375V20.6987C14.8124 20.7236 14.8335 20.7386 14.8599 20.7386H15.7932C15.8044 20.7386 15.8151 20.7344 15.823 20.7269C15.8309 20.7194 15.8354 20.7093 15.8354 20.6987V19.7375C15.8361 19.7319 15.8356 19.7262 15.8338 19.7207C15.832 19.7153 15.8291 19.7103 15.8251 19.7061C15.8211 19.7018 15.8162 19.6984 15.8107 19.6961C15.8052 19.6938 15.7992 19.6927 15.7932 19.6927ZM14.902 19.7774H15.7457V20.6589H14.902V19.7774Z" fill="#47241A"/>
<path fill-rule="evenodd" clip-rule="evenodd" d="M13.9212 12.0331H12.9932V12.9943H13.9265L13.9212 12.0331Z" fill="#4FC3F7"/>
<path d="M13.9212 11.9883H12.9932C12.9867 11.9875 12.9802 11.9881 12.974 11.99C12.9679 11.992 12.9623 11.9953 12.9577 11.9996C12.9531 12.0039 12.9496 12.0092 12.9475 12.015C12.9455 12.0209 12.9448 12.027 12.9457 12.0331V12.9943C12.9457 13.0192 12.9668 13.0341 12.9932 13.0341H13.9265C13.932 13.0341 13.9375 13.0331 13.9426 13.0311C13.9478 13.0291 13.9524 13.0262 13.9563 13.0225C13.9603 13.0188 13.9634 13.0144 13.9655 13.0095C13.9676 13.0047 13.9687 12.9995 13.9687 12.9943V12.0331C13.9694 12.0275 13.9689 12.0218 13.9671 12.0163C13.9653 12.0109 13.9624 12.0059 13.9584 12.0017C13.9544 11.9974 13.9495 11.994 13.944 11.9917C13.9385 11.9894 13.9272 11.9883 13.9212 11.9883ZM13.0353 12.073H13.879V12.9545H13.0353V12.068V12.073Z" fill="#47241A"/>
<path fill-rule="evenodd" clip-rule="evenodd" d="M13.9212 13.9605H12.9932V14.9217H13.9265L13.9212 13.9605Z" fill="#4FC3F7"/>
<path d="M13.9211 13.9156H12.993C12.9871 13.9149 12.981 13.9154 12.9752 13.9171C12.9695 13.9188 12.9642 13.9216 12.9597 13.9254C12.9552 13.9292 12.9516 13.9338 12.9492 13.939C12.9467 13.9442 12.9455 13.9498 12.9456 13.9555V14.9217C12.9456 14.9416 12.9667 14.9615 12.993 14.9615H13.9264C13.9376 14.9615 13.9483 14.9573 13.9562 14.9498C13.9641 14.9424 13.9686 14.9322 13.9686 14.9217V13.9555C13.9686 13.9449 13.9641 13.9348 13.9562 13.9273C13.9483 13.9198 13.9323 13.9156 13.9211 13.9156ZM13.0352 14.0003H13.8789V14.8818H13.0352V14.0003Z" fill="#47241A"/>
<path fill-rule="evenodd" clip-rule="evenodd" d="M13.9212 15.8828H12.9932V16.849H13.9265L13.9212 15.8828Z" fill="#4FC3F7"/>
<path d="M13.9211 15.843H12.993C12.9871 15.8423 12.981 15.8428 12.9752 15.8445C12.9695 15.8461 12.9642 15.849 12.9597 15.8527C12.9552 15.8565 12.9516 15.8612 12.9492 15.8663C12.9467 15.8715 12.9455 15.8772 12.9456 15.8828V16.849C12.9456 16.8689 12.9667 16.8888 12.993 16.8888H13.9264C13.9376 16.8888 13.9483 16.8846 13.9562 16.8772C13.9641 16.8697 13.9686 16.8596 13.9686 16.849V15.8828C13.9686 15.8723 13.9641 15.8621 13.9562 15.8547C13.9483 15.8472 13.9323 15.843 13.9211 15.843ZM13.0352 15.9277H13.8789V16.8042H13.0352V15.9277Z" fill="#47241A"/>
<path fill-rule="evenodd" clip-rule="evenodd" d="M13.9212 17.8102H12.9932V18.7714H13.9265L13.9212 17.8102Z" fill="#4FC3F7"/>
<path d="M13.9211 17.7703H12.993C12.9871 17.7696 12.981 17.7701 12.9752 17.7718C12.9695 17.7735 12.9642 17.7763 12.9597 17.7801C12.9552 17.7839 12.9516 17.7885 12.9492 17.7937C12.9467 17.7989 12.9455 17.8045 12.9456 17.8102V18.7714C12.9456 18.7963 12.9667 18.8162 12.993 18.8162H13.9264C13.9324 18.8162 13.9383 18.8151 13.9438 18.8128C13.9493 18.8105 13.9542 18.8071 13.9582 18.8028C13.9622 18.7986 13.9652 18.7936 13.967 18.7881C13.9688 18.7827 13.9693 18.777 13.9686 18.7714V17.8102C13.9686 17.7996 13.9641 17.7895 13.9562 17.782C13.9483 17.7745 13.9323 17.7703 13.9211 17.7703ZM13.0352 17.85H13.8789V18.7315H13.0352V17.85Z" fill="#47241A"/>
<path fill-rule="evenodd" clip-rule="evenodd" d="M13.9212 19.7375H12.9932V20.6987H13.9265L13.9212 19.7375Z" fill="#4FC3F7"/>
<path d="M13.9212 19.6927H12.9932C12.9867 19.6919 12.9802 19.6925 12.974 19.6944C12.9679 19.6964 12.9623 19.6997 12.9577 19.704C12.9531 19.7084 12.9496 19.7136 12.9475 19.7195C12.9455 19.7253 12.9448 19.7314 12.9457 19.7375V20.6987C12.9457 20.7236 12.9668 20.7386 12.9932 20.7386H13.9265C13.9377 20.7386 13.9484 20.7344 13.9563 20.7269C13.9642 20.7194 13.9687 20.7093 13.9687 20.6987V19.7375C13.9694 19.7319 13.9689 19.7262 13.9671 19.7207C13.9653 19.7153 13.9624 19.7103 13.9584 19.7061C13.9544 19.7018 13.9495 19.6984 13.944 19.6961C13.9385 19.6938 13.9272 19.6927 13.9212 19.6927ZM13.0353 19.7774H13.879V20.6589H13.0353V19.7774Z" fill="#47241A"/>
<path fill-rule="evenodd" clip-rule="evenodd" d="M12.0545 12.0331H11.1265V12.9943H12.0598L12.0545 12.0331Z" fill="#4FC3F7"/>
<path d="M12.0543 11.9883H11.1263C11.1202 11.9883 11.1143 11.9894 11.1088 11.9917C11.1033 11.994 11.0984 11.9974 11.0944 12.0017C11.0904 12.0059 11.0874 12.0109 11.0856 12.0163C11.0839 12.0218 11.0833 12.0275 11.0841 12.0331V12.9943C11.0841 13.0192 11.1052 13.0341 11.1263 13.0341H12.0596C12.0656 13.0349 12.0716 13.0344 12.0774 13.0327C12.0831 13.031 12.0884 13.0282 12.0929 13.0244C12.0974 13.0206 12.101 13.016 12.1034 13.0108C12.1059 13.0056 12.1071 13 12.1071 12.9943V12.0331C12.1079 12.027 12.1073 12.0209 12.1052 12.015C12.1032 12.0092 12.0997 12.0039 12.0951 11.9996C12.0905 11.9953 12.0849 11.992 12.0788 11.99C12.0726 11.9881 12.0608 11.9875 12.0543 11.9883ZM11.1684 12.073H12.0122V12.9545H11.1684V12.068V12.073Z" fill="#47241A"/>
<path fill-rule="evenodd" clip-rule="evenodd" d="M12.0545 13.9605H11.1265V14.9217H12.0598L12.0545 13.9605Z" fill="#4FC3F7"/>
<path d="M12.0545 13.9156H11.1264C11.1152 13.9156 11.1045 13.9198 11.0966 13.9273C11.0887 13.9348 11.0842 13.9449 11.0842 13.9555V14.9217C11.0842 14.9416 11.1053 14.9615 11.1264 14.9615H12.0598C12.0657 14.9622 12.0718 14.9617 12.0775 14.96C12.0833 14.9583 12.0886 14.9555 12.0931 14.9517C12.0976 14.948 12.1012 14.9433 12.1036 14.9381C12.106 14.933 12.1073 14.9273 12.1072 14.9217V13.9555C12.1073 13.9498 12.106 13.9442 12.1036 13.939C12.1012 13.9338 12.0976 13.9292 12.0931 13.9254C12.0886 13.9216 12.0833 13.9188 12.0775 13.9171C12.0718 13.9154 12.0605 13.9149 12.0545 13.9156ZM11.1686 14.0003H12.0123V14.8818H11.1686V14.0003Z" fill="#47241A"/>
<path fill-rule="evenodd" clip-rule="evenodd" d="M12.0545 15.8828H11.1265V16.849H12.0598L12.0545 15.8828Z" fill="#4FC3F7"/>
<path d="M12.0545 15.843H11.1264C11.1152 15.843 11.1045 15.8472 11.0966 15.8547C11.0887 15.8621 11.0842 15.8723 11.0842 15.8828V16.849C11.0842 16.8689 11.1053 16.8888 11.1264 16.8888H12.0598C12.0657 16.8896 12.0718 16.889 12.0775 16.8874C12.0833 16.8857 12.0886 16.8829 12.0931 16.8791C12.0976 16.8753 12.1012 16.8707 12.1036 16.8655C12.106 16.8603 12.1073 16.8547 12.1072 16.849V15.8828C12.1073 15.8772 12.106 15.8715 12.1036 15.8663C12.1012 15.8612 12.0976 15.8565 12.0931 15.8527C12.0886 15.849 12.0833 15.8461 12.0775 15.8445C12.0718 15.8428 12.0605 15.8423 12.0545 15.843ZM11.1686 15.9277H12.0123V16.8042H11.1686V15.9277Z" fill="#47241A"/>
<path fill-rule="evenodd" clip-rule="evenodd" d="M12.0545 17.8102H11.1265V18.7714H12.0598L12.0545 17.8102Z" fill="#4FC3F7"/>
<path d="M12.0545 17.7703H11.1264C11.1152 17.7703 11.1045 17.7745 11.0966 17.782C11.0887 17.7895 11.0842 17.7996 11.0842 17.8102V18.7714C11.0842 18.7963 11.1053 18.8162 11.1264 18.8162H12.0598C12.0662 18.817 12.0728 18.8164 12.0789 18.8145C12.0851 18.8125 12.0907 18.8092 12.0953 18.8049C12.0998 18.8005 12.1033 18.7953 12.1054 18.7894C12.1075 18.7836 12.1081 18.7774 12.1072 18.7714V17.8102C12.1073 17.8045 12.106 17.7989 12.1036 17.7937C12.1012 17.7885 12.0976 17.7839 12.0931 17.7801C12.0886 17.7763 12.0833 17.7735 12.0775 17.7718C12.0718 17.7701 12.0605 17.7696 12.0545 17.7703ZM11.1686 17.85H12.0123V18.7315H11.1686V17.85Z" fill="#47241A"/>
<path fill-rule="evenodd" clip-rule="evenodd" d="M12.0545 19.7375H11.1265V20.6987H12.0598L12.0545 19.7375Z" fill="#4FC3F7"/>
<path d="M12.0543 19.6927H11.1263C11.1202 19.6927 11.1143 19.6938 11.1088 19.6961C11.1033 19.6984 11.0984 19.7018 11.0944 19.7061C11.0904 19.7103 11.0874 19.7153 11.0856 19.7207C11.0839 19.7262 11.0833 19.7319 11.0841 19.7375V20.6987C11.0841 20.7236 11.1052 20.7386 11.1263 20.7386H12.0596C12.0656 20.7393 12.0716 20.7388 12.0774 20.7371C12.0831 20.7354 12.0884 20.7326 12.0929 20.7288C12.0974 20.725 12.101 20.7204 12.1034 20.7152C12.1059 20.71 12.1071 20.7044 12.1071 20.6987V19.7375C12.1079 19.7314 12.1073 19.7253 12.1052 19.7195C12.1032 19.7136 12.0997 19.7084 12.0951 19.704C12.0905 19.6997 12.0849 19.6964 12.0788 19.6944C12.0726 19.6925 12.0608 19.6919 12.0543 19.6927ZM11.1684 19.7774H12.0122V20.6589H11.1684V19.7774Z" fill="#47241A"/>
<path fill-rule="evenodd" clip-rule="evenodd" d="M17.6599 10.1058H16.7266V11.067H17.6599V10.1058Z" fill="#4FC3F7"/>
<path d="M17.6598 10.0659H16.7264C16.7204 10.0652 16.7144 10.0657 16.7086 10.0674C16.7029 10.0691 16.6976 10.0719 16.6931 10.0757C16.6886 10.0795 16.685 10.0841 16.6826 10.0893C16.6801 10.0945 16.6789 10.1001 16.679 10.1058V11.067C16.679 11.0919 16.7 11.1118 16.7264 11.1118H17.6598C17.6658 11.1118 17.6717 11.1107 17.6772 11.1083C17.6827 11.106 17.6876 11.1027 17.6916 11.0984C17.6956 11.0942 17.6986 11.0892 17.7004 11.0837C17.7022 11.0783 17.7027 11.0726 17.702 11.067V10.1058C17.702 10.0952 17.6975 10.0851 17.6896 10.0776C17.6817 10.0701 17.671 10.0659 17.6598 10.0659ZM16.7686 10.1456H17.6123V11.0271H16.7686V10.1456Z" fill="#47241A"/>
<path fill-rule="evenodd" clip-rule="evenodd" d="M19.5266 12.0331H18.5933V12.9943H19.5266V12.0331Z" fill="#4FC3F7"/>
<path d="M19.5267 11.9883H18.5933C18.5873 11.9883 18.5813 11.9894 18.5758 11.9917C18.5703 11.994 18.5654 11.9974 18.5614 12.0017C18.5574 12.0059 18.5545 12.0109 18.5527 12.0163C18.5509 12.0218 18.5504 12.0275 18.5511 12.0331V12.9943C18.5511 13.0192 18.5669 13.0341 18.5933 13.0341H19.5267C19.5322 13.0341 19.5377 13.0331 19.5428 13.0311C19.5479 13.0291 19.5526 13.0262 19.5565 13.0225C19.5604 13.0188 19.5635 13.0144 19.5656 13.0095C19.5677 13.0047 19.5688 12.9995 19.5688 12.9943V12.0331C19.5696 12.0275 19.5691 12.0218 19.5673 12.0163C19.5655 12.0109 19.5625 12.0059 19.5585 12.0017C19.5545 11.9974 19.5496 11.994 19.5441 11.9917C19.5386 11.9894 19.5327 11.9883 19.5267 11.9883ZM18.6355 12.073H19.4792V12.9545H18.6355V12.068V12.073Z" fill="#47241A"/>
<path fill-rule="evenodd" clip-rule="evenodd" d="M19.5266 13.9605H18.5933V14.9217H19.5266V13.9605Z" fill="#4FC3F7"/>
<path d="M19.5266 13.9156H18.5932C18.582 13.9156 18.5713 13.9198 18.5634 13.9273C18.5555 13.9348 18.551 13.9449 18.551 13.9555V14.9217C18.551 14.9416 18.5668 14.9615 18.5932 14.9615H19.5266C19.5378 14.9615 19.5485 14.9573 19.5564 14.9498C19.5643 14.9424 19.5687 14.9322 19.5687 14.9217V13.9555C19.5687 13.9449 19.5643 13.9348 19.5564 13.9273C19.5485 13.9198 19.5378 13.9156 19.5266 13.9156ZM18.6354 14.0003H19.4791V14.8818H18.6354V14.0003Z" fill="#47241A"/>
<path fill-rule="evenodd" clip-rule="evenodd" d="M19.5266 15.8828H18.5933V16.849H19.5266V15.8828Z" fill="#4FC3F7"/>
<path d="M19.5266 15.843H18.5932C18.582 15.843 18.5713 15.8472 18.5634 15.8547C18.5555 15.8621 18.551 15.8723 18.551 15.8828V16.849C18.551 16.8689 18.5668 16.8888 18.5932 16.8888H19.5266C19.5378 16.8888 19.5485 16.8846 19.5564 16.8772C19.5643 16.8697 19.5687 16.8596 19.5687 16.849V15.8828C19.5687 15.8723 19.5643 15.8621 19.5564 15.8547C19.5485 15.8472 19.5378 15.843 19.5266 15.843ZM18.6354 15.9277H19.4791V16.8042H18.6354V15.9277Z" fill="#47241A"/>
<path fill-rule="evenodd" clip-rule="evenodd" d="M19.5266 17.8102H18.5933V18.7714H19.5266V17.8102Z" fill="#4FC3F7"/>
<path d="M19.5266 17.7703H18.5932C18.582 17.7703 18.5713 17.7745 18.5634 17.782C18.5555 17.7895 18.551 17.7996 18.551 17.8102V18.7714C18.551 18.7963 18.5668 18.8162 18.5932 18.8162H19.5266C19.5326 18.8162 19.5385 18.8151 19.544 18.8128C19.5495 18.8105 19.5544 18.8071 19.5584 18.8028C19.5624 18.7986 19.5654 18.7936 19.5672 18.7881C19.569 18.7827 19.5695 18.777 19.5687 18.7714V17.8102C19.5687 17.7996 19.5643 17.7895 19.5564 17.782C19.5485 17.7745 19.5378 17.7703 19.5266 17.7703ZM18.6354 17.85H19.4791V18.7315H18.6354V17.85Z" fill="#47241A"/>
<path fill-rule="evenodd" clip-rule="evenodd" d="M19.5266 19.7375H18.5933V20.6987H19.5266V19.7375Z" fill="#4FC3F7"/>
<path d="M19.5267 19.6927H18.5933C18.5873 19.6927 18.5813 19.6938 18.5758 19.6961C18.5703 19.6984 18.5654 19.7018 18.5614 19.7061C18.5574 19.7103 18.5545 19.7153 18.5527 19.7208C18.5509 19.7262 18.5504 19.7319 18.5511 19.7375V20.6987C18.5511 20.7236 18.5669 20.7386 18.5933 20.7386H19.5267C19.5378 20.7386 19.5486 20.7344 19.5565 20.7269C19.5644 20.7194 19.5688 20.7093 19.5688 20.6987V19.7375C19.5696 19.7319 19.5691 19.7262 19.5673 19.7208C19.5655 19.7153 19.5625 19.7103 19.5585 19.7061C19.5545 19.7018 19.5496 19.6984 19.5441 19.6961C19.5386 19.6938 19.5327 19.6927 19.5267 19.6927ZM18.6355 19.7774H19.4792V20.6589H18.6355V19.7774Z" fill="#47241A"/>
<path fill-rule="evenodd" clip-rule="evenodd" d="M17.6599 12.0331H16.7266V12.9943H17.6599V12.0331Z" fill="#4FC3F7"/>
<path d="M17.6599 11.9883H16.7265L16.7074 11.99L16.6911 11.9996L16.6809 12.015L16.6791 12.0331V12.9943C16.6791 13.0192 16.7002 13.0341 16.7265 13.0341H17.6599L17.676 13.0311L17.6897 13.0225L17.6989 13.0095L17.7021 12.9943V12.0331L17.7005 12.0163L17.6918 12.0017L17.6774 11.9917L17.6599 11.9883ZM16.7687 12.073H17.6124V12.9545H16.7687V12.068V12.073Z" fill="#47241A"/>
<path fill-rule="evenodd" clip-rule="evenodd" d="M17.6599 13.9605H16.7266V14.9217H17.6599V13.9605Z" fill="#4FC3F7"/>
<path d="M17.6598 13.9156H16.7264C16.7204 13.9149 16.7144 13.9154 16.7086 13.9171C16.7029 13.9188 16.6976 13.9216 16.6931 13.9254C16.6886 13.9292 16.685 13.9338 16.6826 13.939C16.6801 13.9442 16.6789 13.9498 16.679 13.9555V14.9217C16.679 14.9416 16.7 14.9615 16.7264 14.9615H17.6598C17.671 14.9615 17.6817 14.9573 17.6896 14.9498C17.6975 14.9424 17.702 14.9322 17.702 14.9217V13.9555C17.702 13.9449 17.6975 13.9348 17.6896 13.9273C17.6817 13.9198 17.671 13.9156 17.6598 13.9156ZM16.7686 14.0003H17.6123V14.8818H16.7686V14.0003Z" fill="#47241A"/>
<path fill-rule="evenodd" clip-rule="evenodd" d="M17.6599 15.8828H16.7266V16.849H17.6599V15.8828Z" fill="#4FC3F7"/>
<path d="M17.6598 15.843H16.7264C16.7204 15.8423 16.7144 15.8428 16.7086 15.8445C16.7029 15.8461 16.6976 15.849 16.6931 15.8527C16.6886 15.8565 16.685 15.8612 16.6826 15.8663C16.6801 15.8715 16.6789 15.8772 16.679 15.8828V16.849C16.679 16.8689 16.7 16.8888 16.7264 16.8888H17.6598C17.671 16.8888 17.6817 16.8846 17.6896 16.8772C17.6975 16.8697 17.702 16.8596 17.702 16.849V15.8828C17.702 15.8723 17.6975 15.8621 17.6896 15.8547C17.6817 15.8472 17.671 15.843 17.6598 15.843ZM16.7686 15.9277H17.6123V16.8042H16.7686V15.9277Z" fill="#47241A"/>
<path fill-rule="evenodd" clip-rule="evenodd" d="M17.6599 17.8102H16.7266V18.7714H17.6599V17.8102Z" fill="#4FC3F7"/>
<path d="M17.6598 17.7703H16.7264C16.7204 17.7696 16.7144 17.7701 16.7086 17.7718C16.7029 17.7735 16.6976 17.7763 16.6931 17.7801C16.6886 17.7839 16.685 17.7885 16.6826 17.7937C16.6801 17.7989 16.6789 17.8045 16.679 17.8102V18.7714C16.679 18.7963 16.7 18.8162 16.7264 18.8162H17.6598C17.6658 18.8162 17.6717 18.8151 17.6772 18.8128C17.6827 18.8105 17.6876 18.8071 17.6916 18.8028C17.6956 18.7986 17.6986 18.7936 17.7004 18.7881C17.7022 18.7827 17.7027 18.777 17.702 18.7714V17.8102C17.702 17.7996 17.6975 17.7895 17.6896 17.782C17.6817 17.7745 17.671 17.7703 17.6598 17.7703ZM16.7686 17.85H17.6123V18.7315H16.7686V17.85Z" fill="#47241A"/>
<path fill-rule="evenodd" clip-rule="evenodd" d="M17.6599 19.7375H16.7266V20.6987H17.6599V19.7375Z" fill="#4FC3F7"/>
<path d="M17.6599 19.6927H16.7265C16.7201 19.6919 16.7136 19.6925 16.7074 19.6944C16.7013 19.6964 16.6957 19.6997 16.6911 19.704C16.6865 19.7084 16.683 19.7136 16.6809 19.7195C16.6788 19.7253 16.6782 19.7314 16.6791 19.7375V20.6987C16.6791 20.7236 16.7002 20.7386 16.7265 20.7386H17.6599C17.6711 20.7386 17.6818 20.7344 17.6897 20.7269C17.6976 20.7194 17.7021 20.7093 17.7021 20.6987V19.7375C17.7028 19.7319 17.7023 19.7262 17.7005 19.7207C17.6987 19.7153 17.6958 19.7103 17.6918 19.7061C17.6878 19.7018 17.6829 19.6984 17.6774 19.6961C17.6719 19.6938 17.6659 19.6927 17.6599 19.6927ZM16.7687 19.7774H17.6124V20.6589H16.7687V19.7774Z" fill="#47241A"/>
<path fill-rule="evenodd" clip-rule="evenodd" d="M19.5266 10.1058H18.5933V11.067H19.5266V10.1058Z" fill="#4FC3F7"/>
<path d="M19.5266 10.0659H18.5932C18.582 10.0659 18.5713 10.0701 18.5634 10.0776C18.5555 10.0851 18.551 10.0952 18.551 10.1058V11.067C18.551 11.0919 18.5668 11.1118 18.5932 11.1118H19.5266C19.5326 11.1118 19.5385 11.1107 19.544 11.1083C19.5495 11.106 19.5544 11.1027 19.5584 11.0984C19.5624 11.0942 19.5654 11.0892 19.5672 11.0837C19.569 11.0783 19.5695 11.0726 19.5687 11.067V10.1058C19.5687 10.0952 19.5643 10.0851 19.5564 10.0776C19.5485 10.0701 19.5378 10.0659 19.5266 10.0659ZM18.6354 10.1456H19.4791V11.0271H18.6354V10.1456Z" fill="#47241A"/>
<path fill-rule="evenodd" clip-rule="evenodd" d="M18.4246 9.95637H19.6954V10.1357H18.4246V9.95637ZM18.4246 11.9435H19.6954V12.1228H18.4246V11.9435ZM18.4246 13.9057H19.6954V14.085H18.4246V13.9057ZM18.4246 15.8081H19.6954V15.9874H18.4246V15.8081ZM18.4246 17.7504H19.6954V17.9297H18.4246V17.7504ZM18.4246 19.6429H19.6954V19.8222H18.4246V19.6429Z" fill="#E4ED80"/>
<path fill-rule="evenodd" clip-rule="evenodd" d="M18.4243 15.8081H19.6952V15.9874H18.4243V15.8081ZM16.5576 9.95637H17.8285V10.1357H16.5576V9.95637ZM16.5576 11.9435H17.8285V12.1228H16.5576V11.9435ZM16.5576 13.9057H17.8285V14.085H16.5576V13.9057ZM16.5576 15.8081H17.8285V15.9874H16.5576V15.8081ZM16.5576 17.7504H17.8285V17.9297H16.5576V17.7504ZM16.5576 19.6429H17.8285V19.8222H16.5576V19.6429Z" fill="#E4ED80"/>
<path fill-rule="evenodd" clip-rule="evenodd" d="M16.5576 15.8081H17.8285V15.9874H16.5576V15.8081Z" fill="#E4ED80"/>
<path fill-rule="evenodd" clip-rule="evenodd" d="M25.3112 16.9436H24.3726V17.9048H25.3112V16.9436Z" fill="#4FC3F7"/>
<path d="M25.3112 16.8988H24.3726L24.3551 16.9022L24.3407 16.9122L24.332 16.9268L24.3304 16.9436V17.9048C24.3304 17.9297 24.3515 17.9496 24.3726 17.9496H25.3112L25.3304 17.9479L25.3467 17.9383L25.3568 17.9229L25.3587 17.9048V16.9486L25.355 16.9321L25.3445 16.9185L25.329 16.9102L25.3112 16.9088V16.8988ZM24.4148 16.9835H25.2585V17.865H24.4148V16.9835Z" fill="#47241A"/>
<path fill-rule="evenodd" clip-rule="evenodd" d="M25.3112 18.871H24.3726V19.8322H25.3112V18.871Z" fill="#4FC3F7"/>
<path d="M25.3111 18.8311H24.3725C24.3613 18.8311 24.3506 18.8353 24.3427 18.8428C24.3348 18.8503 24.3303 18.8604 24.3303 18.871V19.8322C24.3303 19.8571 24.3514 19.877 24.3725 19.877H25.3111L25.3303 19.8752L25.3466 19.8657L25.3568 19.8502L25.3586 19.8322V18.871L25.355 18.8545L25.3444 18.8409L25.3289 18.8326L25.3111 18.8311ZM24.4147 18.9108H25.2584V19.7923H24.4147V18.9108Z" fill="#47241A"/>
<path fill-rule="evenodd" clip-rule="evenodd" d="M25.3112 20.7983H24.3726V21.7595H25.3112V20.7983Z" fill="#4FC3F7"/>
<path d="M25.3112 20.7535H24.3726C24.3666 20.7535 24.3606 20.7546 24.3551 20.7569C24.3496 20.7592 24.3447 20.7626 24.3407 20.7669C24.3367 20.7711 24.3338 20.7761 24.332 20.7815C24.3302 20.787 24.3297 20.7927 24.3304 20.7983V21.7595C24.3304 21.7844 24.3515 21.7993 24.3726 21.7993H25.3112C25.3172 21.8001 25.3232 21.7996 25.329 21.7979C25.3347 21.7962 25.34 21.7934 25.3445 21.7896C25.349 21.7858 25.3526 21.7812 25.355 21.776C25.3575 21.7708 25.3587 21.7652 25.3587 21.7595V20.7983C25.3596 20.7922 25.3589 20.7861 25.3568 20.7802C25.3548 20.7744 25.3513 20.7691 25.3467 20.7648C25.3421 20.7605 25.3365 20.7572 25.3304 20.7552C25.3242 20.7533 25.3177 20.7527 25.3112 20.7535ZM24.4148 20.8382H25.2585V21.7197H24.4148V20.8382Z" fill="#47241A"/>
<path fill-rule="evenodd" clip-rule="evenodd" d="M25.3112 22.7257H24.3726V23.6868H25.3112V22.7257Z" fill="#4FC3F7"/>
<path d="M25.3111 22.6808H24.3725C24.3613 22.6808 24.3506 22.685 24.3427 22.6925C24.3348 22.7 24.3303 22.7101 24.3303 22.7207V23.6868C24.3303 23.7068 24.3514 23.7267 24.3725 23.7267H25.3111L25.3289 23.7252L25.3444 23.7169L25.355 23.7033L25.3586 23.6868V22.7207L25.355 22.7042L25.3444 22.6906L25.3289 22.6823L25.3111 22.6808ZM24.4147 22.7655H25.2584V23.642H24.4147V22.7655Z" fill="#47241A"/>
<path fill-rule="evenodd" clip-rule="evenodd" d="M25.3112 24.648H24.3726V25.6142H25.3112V24.648Z" fill="#4FC3F7"/>
<path d="M25.3111 24.6082H24.3725C24.3613 24.6082 24.3506 24.6124 24.3427 24.6199C24.3348 24.6273 24.3303 24.6375 24.3303 24.648V25.6142C24.3303 25.6341 24.3514 25.654 24.3725 25.654H25.3111L25.3289 25.6526L25.3444 25.6443L25.355 25.6307L25.3586 25.6142V24.648L25.355 24.6315L25.3444 24.6179L25.3289 24.6097L25.3111 24.6082ZM24.4147 24.6879H25.2584V25.5694H24.4147V24.6879Z" fill="#47241A"/>
<path fill-rule="evenodd" clip-rule="evenodd" d="M23.4392 16.9436H22.5059V17.9048H23.4392V16.9436Z" fill="#4FC3F7"/>
<path d="M23.4392 16.8988H22.5059L22.4884 16.9022L22.474 16.9122L22.4653 16.9268L22.4637 16.9436V17.9048C22.4637 17.9297 22.4795 17.9496 22.5059 17.9496H23.4392L23.4567 17.9462L23.4711 17.9363L23.4799 17.9216L23.4814 17.9048V16.9486C23.4814 16.938 23.477 16.9279 23.4691 16.9204C23.4612 16.913 23.4504 16.9088 23.4392 16.9088V16.8988ZM22.5481 16.9835H23.3918V17.865H22.5481V16.9835Z" fill="#47241A"/>
<path fill-rule="evenodd" clip-rule="evenodd" d="M23.4392 18.871H22.5059V19.8322H23.4392V18.871Z" fill="#4FC3F7"/>
<path d="M23.4392 18.8311H22.5058C22.4946 18.8311 22.4839 18.8353 22.476 18.8428C22.4681 18.8503 22.4636 18.8604 22.4636 18.871V19.8322C22.4636 19.8571 22.4794 19.877 22.5058 19.877H23.4392L23.4566 19.8735L23.471 19.8636L23.4798 19.8489L23.4813 19.8322V18.871C23.4813 18.8604 23.4769 18.8503 23.469 18.8428C23.4611 18.8353 23.4503 18.8311 23.4392 18.8311ZM22.548 18.9108H23.3917V19.7923H22.548V18.9108Z" fill="#47241A"/>
<path fill-rule="evenodd" clip-rule="evenodd" d="M23.4392 20.7983H22.5059V21.7595H23.4392V20.7983Z" fill="#4FC3F7"/>
<path d="M23.4392 20.7535H22.5059C22.4999 20.7535 22.4939 20.7546 22.4884 20.7569C22.4829 20.7592 22.478 20.7626 22.474 20.7669C22.47 20.7711 22.4671 20.7761 22.4653 20.7815C22.4635 20.787 22.463 20.7927 22.4637 20.7983V21.7595C22.4637 21.7844 22.4795 21.7993 22.5059 21.7993H23.4392C23.4504 21.7993 23.4612 21.7951 23.4691 21.7877C23.477 21.7802 23.4814 21.7701 23.4814 21.7595V20.7983C23.4822 20.7927 23.4817 20.787 23.4799 20.7815C23.4781 20.7761 23.4751 20.7711 23.4711 20.7669C23.4671 20.7626 23.4622 20.7592 23.4567 20.7569C23.4512 20.7546 23.4453 20.7535 23.4392 20.7535ZM22.5481 20.8382H23.3918V21.7197H22.5481V20.8382Z" fill="#47241A"/>
<path fill-rule="evenodd" clip-rule="evenodd" d="M23.4392 22.7257H22.5059V23.6868H23.4392V22.7257Z" fill="#4FC3F7"/>
<path d="M23.4392 22.6808H22.5058C22.4946 22.6808 22.4839 22.685 22.476 22.6925C22.4681 22.7 22.4636 22.7101 22.4636 22.7207V23.6868C22.4636 23.7068 22.4794 23.7267 22.5058 23.7267H23.4392C23.4503 23.7267 23.4611 23.7225 23.469 23.715C23.4769 23.7075 23.4813 23.6974 23.4813 23.6868V22.7207C23.4813 22.7101 23.4769 22.7 23.469 22.6925C23.4611 22.685 23.4503 22.6808 23.4392 22.6808ZM22.548 22.7655H23.3917V23.642H22.548V22.7655Z" fill="#47241A"/>
<path fill-rule="evenodd" clip-rule="evenodd" d="M23.4392 24.648H22.5059V25.6142H23.4392V24.648Z" fill="#4FC3F7"/>
<path d="M23.4392 24.6082H22.5058C22.4946 24.6082 22.4839 24.6124 22.476 24.6199C22.4681 24.6273 22.4636 24.6375 22.4636 24.648V25.6142C22.4636 25.6341 22.4794 25.654 22.5058 25.654H23.4392C23.4503 25.654 23.4611 25.6498 23.469 25.6424C23.4769 25.6349 23.4813 25.6248 23.4813 25.6142V24.648C23.4813 24.6375 23.4769 24.6273 23.469 24.6199C23.4611 24.6124 23.4503 24.6082 23.4392 24.6082ZM22.548 24.6879H23.3917V25.5694H22.548V24.6879Z" fill="#47241A"/>
<path fill-rule="evenodd" clip-rule="evenodd" d="M24.2039 16.854H25.4747V17.0333H24.2039V16.854ZM24.2039 18.8162H25.4747V18.9955H24.2039V18.8162ZM24.2039 20.7186H25.4747V20.8979H24.2039V20.7186ZM24.2039 22.6659H25.4747V22.8452H24.2039V22.6659ZM24.2039 24.5534H25.4747V24.7327H24.2039V24.5534Z" fill="#E4ED80"/>
<path fill-rule="evenodd" clip-rule="evenodd" d="M24.2039 20.7186H25.4747V20.8979H24.2039V20.7186ZM22.3372 16.854H23.608V17.0333H22.3372V16.854ZM22.3372 18.8162H23.608V18.9955H22.3372V18.8162ZM22.3372 20.7186H23.608V20.8979H22.3372V20.7186ZM22.3372 22.6659H23.608V22.8452H22.3372V22.6659ZM22.3372 24.5534H23.608V24.7327H22.3372V24.5534Z" fill="#E4ED80"/>
<path fill-rule="evenodd" clip-rule="evenodd" d="M22.337 20.7186H23.6079V20.8979H22.337V20.7186ZM14.6909 9.95637H15.9618V10.1357H14.6909V9.95637ZM14.6909 11.9435H15.9618V12.1228H14.6909V11.9435ZM14.6909 13.9057H15.9618V14.085H14.6909V13.9057ZM14.6909 15.8081H15.9618V15.9874H14.6909V15.8081ZM14.6909 17.7504H15.9618V17.9297H14.6909V17.7504ZM14.6909 19.6429H15.9618V19.8222H14.6909V19.6429Z" fill="#E4ED80"/>
<path fill-rule="evenodd" clip-rule="evenodd" d="M14.6909 15.8081H15.9618V15.9874H14.6909V15.8081ZM12.8242 9.95637H14.0951V10.1357H12.8242V9.95637ZM12.8242 11.9435H14.0951V12.1228H12.8242V11.9435ZM12.8242 13.9057H14.0951V14.085H12.8242V13.9057ZM12.8242 15.8081H14.0951V15.9874H12.8242V15.8081ZM12.8242 17.7504H14.0951V17.9297H12.8242V17.7504ZM12.8242 19.6429H14.0951V19.8222H12.8242V19.6429Z" fill="#E4ED80"/>
<path fill-rule="evenodd" clip-rule="evenodd" d="M12.8244 15.8081H14.0952V15.9874H12.8244V15.8081ZM10.9524 9.95637H12.2232V10.1357H10.9524V9.95637ZM10.9524 11.9435H12.2232V12.1228H10.9524V11.9435ZM10.9524 13.9057H12.2232V14.085H10.9524V13.9057ZM10.9524 15.8081H12.2232V15.9874H10.9524V15.8081ZM10.9524 17.7504H12.2232V17.9297H10.9524V17.7504ZM10.9524 19.6429H12.2232V19.8222H10.9524V19.6429Z" fill="#E4ED80"/>
<path fill-rule="evenodd" clip-rule="evenodd" d="M10.9524 15.8081H12.2232V15.9874H10.9524V15.8081Z" fill="#E4ED80"/>
<path fill-rule="evenodd" clip-rule="evenodd" d="M8.80615 8.32784H21.8415V8.97526H8.80615V8.32784ZM21.3932 15.589H27.4521V16.2364H21.3932V15.589Z" fill="#627389"/>
<path fill-rule="evenodd" clip-rule="evenodd" d="M13.6628 22.3422H16.9902V26.8493H13.6628V22.3422Z" fill="#80DEEA"/>
<path d="M16.9901 22.2525H13.552V26.8493H13.7682V22.4567H16.8794V26.8493H17.1009V22.2525H16.9901Z" fill="#47241A"/>
<path d="M15.2026 22.4567V26.8543H15.4452V22.4567H15.2026Z" fill="#4DD0E1"/>
<path d="M16.8795 24.5584H13.7683V24.7875H16.8795V24.5584Z" fill="#4DD0E1"/>
<path fill-rule="evenodd" clip-rule="evenodd" d="M18.1503 21.7346H12.4974C12.2792 21.7346 12.07 21.8165 11.9157 21.9622C11.7615 22.1079 11.6748 22.3055 11.6748 22.5115H18.9729C18.9729 22.3055 18.8862 22.1079 18.7319 21.9622C18.5777 21.8165 18.3684 21.7346 18.1503 21.7346Z" fill="#627389"/>
<path fill-rule="evenodd" clip-rule="evenodd" d="M8.15747 26.4907H27.5628V26.8941H8.15747V26.4907Z" fill="#324052"/>
<path fill-rule="evenodd" clip-rule="evenodd" d="M12.5343 23.5623H11.1738V24.9568H12.529L12.5343 23.5623Z" fill="#4FC3F7"/>
<path d="M12.5344 23.5026H11.1739C11.1571 23.5026 11.141 23.5089 11.1291 23.5201C11.1173 23.5313 11.1106 23.5465 11.1106 23.5623V24.9568C11.1106 24.9917 11.1422 25.0216 11.1739 25.0216H12.5291C12.5383 25.0223 12.5476 25.0212 12.5562 25.0182C12.5649 25.0152 12.5728 25.0104 12.5793 25.0043C12.5859 24.9981 12.5909 24.9907 12.5941 24.9825C12.5972 24.9743 12.5984 24.9655 12.5976 24.9568V23.5623C12.5976 23.5465 12.591 23.5313 12.5791 23.5201C12.5672 23.5089 12.5511 23.5026 12.5344 23.5026ZM11.2372 23.6221H12.4658V24.897H11.2372V23.6221Z" fill="#47241A"/>
<path fill-rule="evenodd" clip-rule="evenodd" d="M10.9312 23.4229H12.7768V23.6868H10.9312V23.4229Z" fill="#E4ED80"/>
<path fill-rule="evenodd" clip-rule="evenodd" d="M19.4739 23.5623H18.1187V24.9568H19.4739V23.5623Z" fill="#4FC3F7"/>
<path d="M19.4739 23.5026H18.1187C18.1019 23.5026 18.0858 23.5089 18.074 23.5201C18.0621 23.5313 18.0554 23.5465 18.0554 23.5623V24.9568C18.0554 24.9917 18.0818 25.0216 18.1187 25.0216H19.4739C19.4827 25.0216 19.4914 25.0199 19.4994 25.0166C19.5074 25.0133 19.5147 25.0084 19.5206 25.0023C19.5266 24.9962 19.5311 24.989 19.534 24.9812C19.5368 24.9734 19.5379 24.9651 19.5372 24.9568V23.5623C19.5372 23.5465 19.5305 23.5313 19.5187 23.5201C19.5068 23.5089 19.4907 23.5026 19.4739 23.5026ZM18.182 23.6221H19.4106V24.897H18.182V23.6221Z" fill="#47241A"/>
<path fill-rule="evenodd" clip-rule="evenodd" d="M17.8708 23.4229H19.7165V23.6868H17.8708V23.4229Z" fill="#E4ED80"/>
</g>
<defs>
<clipPath id="clip0_130_2851">
<rect width="36" height="34" fill="white" transform="translate(0 0.613464)"/>
</clipPath>
</defs>
</svg>
